<svg xmlns="http://www.w3.org/2000/svg" xmlns:xlink="http://www.w3.org/1999/xlink" version="1.1" x="0px" y="0px" viewBox="0 0 109 136.25" enable-background="new 0 0 109 109" xml:space="preserve"><path fill="#000000" d="M90.681,80.527c0.005,1-0.38,1.941-1.087,2.652c-0.715,0.719-1.671,1.115-2.692,1.115l-8.841-0.043  l0.043,8.823c0.005,1.022-0.386,1.98-1.102,2.701c-0.707,0.709-1.645,1.101-2.645,1.101h-0.016  c-2.063-0.009-3.751-1.711-3.764-3.795l-0.043-8.867l-9.143-0.046c-2.081-0.009-3.785-1.694-3.797-3.758  c-0.003-1.001,0.383-1.943,1.089-2.653c0.716-0.718,1.671-1.114,2.691-1.114l9.122,0.043l-0.044-9.105  c-0.005-1.022,0.386-1.981,1.102-2.701c0.706-0.71,1.645-1.102,2.645-1.102c2.082,0.009,3.769,1.712,3.778,3.799l0.046,9.146  l8.862,0.044C88.965,76.776,90.668,78.463,90.681,80.527z M54.657,88.89H22.03c-2.956,0-5.351-2.396-5.351-5.351  c0-13.724,8.848-25.419,21.139-29.683c-6.124-3.554-10.25-10.184-10.25-17.759c0-11.313,9.204-20.517,20.516-20.517  c11.313,0,20.518,9.204,20.518,20.517c0,7.575-4.127,14.205-10.251,17.76c3.382,1.173,6.488,2.924,9.237,5.109  c-0.366,0.285-0.721,0.584-1.052,0.919c-0.956,0.958-1.699,2.069-2.231,3.271c-4.451-3.547-10.085-5.672-16.219-5.672  c-14.388,0-26.053,11.665-26.053,26.054h28.958C51.642,85.674,52.941,87.531,54.657,88.89z M48.083,51.263  c8.375,0,15.167-6.79,15.167-15.166c0-8.376-6.791-15.166-15.167-15.166c-8.376,0-15.165,6.79-15.165,15.166  C32.918,44.473,39.707,51.263,48.083,51.263z"/><text x="0" y="124" fill="#000000" font-size="5px" font-weight="bold" font-family="'Helvetica Neue', Helvetica, Arial-Unicode, Arial, Sans-serif">Created by Samy Menai</text><text x="0" y="129" fill="#000000" font-size="5px" font-weight="bold" font-family="'Helvetica Neue', Helvetica, Arial-Unicode, Arial, Sans-serif">from the Noun Project</text></svg>