<?xml version="1.0" encoding="utf-8"?>
<!-- Generator: Adobe Illustrator 23.0.5, SVG Export Plug-In . SVG Version: 6.00 Build 0)  -->
<svg version="1.1" id="Capa_1" xmlns="http://www.w3.org/2000/svg" xmlns:xlink="http://www.w3.org/1999/xlink" x="0px" y="0px"
	 viewBox="0 0 100 100" style="enable-background:new 0 0 100 100;" xml:space="preserve">
<style type="text/css">
	.st0{fill-rule:evenodd;clip-rule:evenodd;}
	.st1{fill-rule:evenodd;clip-rule:evenodd;fill:#E3E3C1;}
	.st2{fill-rule:evenodd;clip-rule:evenodd;fill:#9E9E7B;}
	.st3{fill-rule:evenodd;clip-rule:evenodd;fill:#FFFFFF;}
	.st4{fill-rule:evenodd;clip-rule:evenodd;fill:#E63C3C;}
	.st5{fill-rule:evenodd;clip-rule:evenodd;fill:#942121;}
	.st6{fill-rule:evenodd;clip-rule:evenodd;fill:#FF9494;}
	.st7{fill-rule:evenodd;clip-rule:evenodd;fill:#1085A8;}
	.st8{fill-rule:evenodd;clip-rule:evenodd;fill:#075066;}
	.st9{fill-rule:evenodd;clip-rule:evenodd;fill:#44CCF5;}
	.st10{fill-rule:evenodd;clip-rule:evenodd;fill:#ABA682;}
	.st11{fill-rule:evenodd;clip-rule:evenodd;fill:#787455;}
	.st12{fill-rule:evenodd;clip-rule:evenodd;fill:#DED9B4;}
	.st13{fill-rule:evenodd;clip-rule:evenodd;fill:#C7C29F;}
	.st14{fill-rule:evenodd;clip-rule:evenodd;fill:#878767;}
	.st15{fill-rule:evenodd;clip-rule:evenodd;fill:#FAF6DC;}
	.st16{fill-rule:evenodd;clip-rule:evenodd;fill:#B3B3B3;}
	.st17{fill-rule:evenodd;clip-rule:evenodd;fill:#666666;}
	.st18{fill-rule:evenodd;clip-rule:evenodd;fill:#999999;}
	.st19{fill-rule:evenodd;clip-rule:evenodd;fill:#575757;}
	.st20{fill-rule:evenodd;clip-rule:evenodd;fill:#D9D9D9;}
	.st21{fill-rule:evenodd;clip-rule:evenodd;fill:#B3793E;}
	.st22{fill-rule:evenodd;clip-rule:evenodd;fill:#E0E0B8;}
	.st23{fill-rule:evenodd;clip-rule:evenodd;fill:#704923;}
	.st24{fill-rule:evenodd;clip-rule:evenodd;fill:#E6AA6E;}
	.st25{fill-rule:evenodd;clip-rule:evenodd;fill:#BA8E54;}
	.st26{fill-rule:evenodd;clip-rule:evenodd;fill:#966C36;}
	.st27{fill-rule:evenodd;clip-rule:evenodd;fill:#F0C48B;}
	.st28{fill-rule:evenodd;clip-rule:evenodd;fill:#D4A76C;}
	.st29{fill-rule:evenodd;clip-rule:evenodd;fill:#FFE1BA;}
	.st30{fill-rule:evenodd;clip-rule:evenodd;fill:#FFF2E0;}
	.st31{fill-rule:evenodd;clip-rule:evenodd;fill:#66634E;}
	.st32{fill-rule:evenodd;clip-rule:evenodd;fill:#6E6B55;}
	.st33{fill-rule:evenodd;clip-rule:evenodd;fill:#AD743B;}
	.st34{fill-rule:evenodd;clip-rule:evenodd;fill:#66421E;}
	.st35{fill-rule:evenodd;clip-rule:evenodd;fill:#F2B579;}
	.st36{fill-rule:evenodd;clip-rule:evenodd;fill:#666246;}
	.st37{fill-rule:evenodd;clip-rule:evenodd;fill:#E8E8CA;}
	.st38{fill-rule:evenodd;clip-rule:evenodd;fill:#EBE8C8;}
	.st39{fill-rule:evenodd;clip-rule:evenodd;fill:#FFFDF2;}
	.st40{fill-rule:evenodd;clip-rule:evenodd;fill:#D19456;}
	.st41{fill-rule:evenodd;clip-rule:evenodd;fill:#FFE5BD;}
	.st42{fill-rule:evenodd;clip-rule:evenodd;fill:#7D5D33;}
	.st43{fill-rule:evenodd;clip-rule:evenodd;fill:#BA7F45;}
	.st44{fill-rule:evenodd;clip-rule:evenodd;fill:#805D35;}
	.st45{fill-rule:evenodd;clip-rule:evenodd;fill:#7A5831;}
	.st46{fill-rule:evenodd;clip-rule:evenodd;fill:#E6A768;}
	.st47{fill-rule:evenodd;clip-rule:evenodd;fill:#FFCF9E;}
	.st48{fill-rule:evenodd;clip-rule:evenodd;fill:#78755F;}
	.st49{fill-rule:evenodd;clip-rule:evenodd;fill:#BAA570;}
	.st50{fill-rule:evenodd;clip-rule:evenodd;fill:#8C7949;}
	.st51{fill-rule:evenodd;clip-rule:evenodd;fill:#E0CC9B;}
	.st52{fill-rule:evenodd;clip-rule:evenodd;fill:#3ABEE6;}
	.st53{fill-rule:evenodd;clip-rule:evenodd;fill:#094E63;}
	.st54{fill-rule:evenodd;clip-rule:evenodd;fill:#FA8484;}
	.st55{fill-rule:evenodd;clip-rule:evenodd;fill:#9E3131;}
	.st56{fill-rule:evenodd;clip-rule:evenodd;fill:#4D4D4D;}
	.st57{fill-rule:evenodd;clip-rule:evenodd;fill:#808080;}
	.st58{fill-rule:evenodd;clip-rule:evenodd;fill:#636363;}
	.st59{fill-rule:evenodd;clip-rule:evenodd;fill:#949494;}
	.st60{fill-rule:evenodd;clip-rule:evenodd;fill:#FFDFBF;}
	.st61{fill-rule:evenodd;clip-rule:evenodd;fill:#B3783D;}
	.st62{fill-rule:evenodd;clip-rule:evenodd;fill:#FFE3C7;}
	.st63{fill-rule:evenodd;clip-rule:evenodd;fill:#F5B97D;}
	.st64{fill-rule:evenodd;clip-rule:evenodd;fill:#414141;}
</style>
<g>
	<path class="st0" d="M37.8,73c-0.1,0.1-0.2,0.2-0.3,0.2c-1.5,0.9-3,0.5-4.4-0.3c-0.9-0.5-1.8-0.8-2.7-1c-0.7-0.2-1.5-0.3-2.2-0.4
		c-2.5-0.2-5,0-7.5,0.2c-1,0.1-2.1,0.1-3.2,0c-0.8-0.1-1.6-0.2-2.3-0.6c-2.6,0.6-5.1,1.1-7.7,1.8L7,73L7,72.6
		c-0.7-6.1-1.8-12.3-3.9-18.1L3,54.3l0.3-0.1c1.3-0.6,2.6-1.2,3.9-1.7c-0.2-0.9-0.1-2.2,0.5-2.9l0.1-0.2l0.2,0
		c0.4,0.1,0.8,0,1.2-0.1c1-0.3,1.9-1,2.7-1.8c0.6-0.7,1.2-1.4,1.7-2.2c0.2-0.3,0.4-0.6,0.6-0.9c0.1-0.2,0.2-0.4,0.4-0.6
		c0-0.1,0-0.1,0-0.2c0-0.2,0-0.4,0-0.6c0-0.6-0.1-1.2-0.1-1.8c0-0.6-0.1-1.1-0.1-1.7c0-0.2,0-0.4,0-0.6c0-0.1,0-0.3,0-0.4
		c-0.2-1.7,1-3.7,2.2-4.8c1.1-1,2.5-1.7,4-1.6c0.6-0.8,1.4-1.4,2.4-1.8c1.1-0.4,2.2-0.4,3.3,0c0.3,0.1,0.7,0.2,0.9,0
		c0.6-0.5,0.6-2.1,0.5-2.7c0-0.2,0-0.5,0-0.7c0.2-1.2,1.3-2.2,2.6-2.2c0.7,0,1.4,0.3,1.9,0.8c0.6,0.6,1,1.5,1.3,2.3
		c2.1-0.8,6.2-2,8.3-1.5c0.3-0.5,0.8-0.9,1.3-1.3c0.5-0.3,1.1-0.5,1.7-0.5c2.8-0.1,5.6-0.2,8.3-0.5c0.5-0.6,1.1-1.1,1.9-1.3
		c1.1-0.3,2.3,0.1,3.2,0.8c1,0.8,1.6,2,1.8,3.3c0.2,0.1,0.5,0.3,0.7,0.5c2.5-1.4,6-1.1,7.8,1.3c3.4,0,7.2,1.4,9.6,3.9
		c0.9-0.4,1.9-0.5,2.9-0.4c0.9,0.1,1.8,0.5,2.6,1.1c1.6,1.1,3,3.1,2.7,5.2c0,0.1,0,0.3,0,0.4c0,0.2,0,0.4,0,0.6
		c0,0.6-0.1,1.1-0.1,1.7c0,0.6-0.1,1.2-0.1,1.8c0,0.2,0,0.4,0,0.6c0,0.1,0,0.1,0,0.2c0.1,0.2,0.3,0.4,0.4,0.6
		c0.2,0.3,0.4,0.6,0.6,0.9c0.5,0.8,1.1,1.5,1.7,2.2c1,1.1,2.3,2.1,3.9,1.8l0.2,0l0.1,0.2c0.6,0.7,0.7,1.9,0.5,2.9
		c1.3,0.5,2.6,1.1,3.9,1.7l0.3,0.1l-0.1,0.3c-2,5.8-3.1,12-3.9,18.1L93,73l-0.4-0.1c-2.5-0.7-5.1-1.2-7.7-1.8
		c-0.7,0.4-1.5,0.6-2.3,0.6c-1,0.1-2.1,0-3.2,0c-2.5-0.2-5-0.4-7.5-0.2c-1.7,0.2-3.4,0.6-5,1.4c-1.4,0.8-3,1.2-4.4,0.3
		c-0.1-0.1-0.2-0.1-0.3-0.2c-2.4,1.7-6,2.6-8.9,2.2l-3.6,2l-3.6-2.2C43.3,75.4,40.1,74.7,37.8,73z"/>
	<g>
		<g>
			<g>
				<g>
					
						<rect x="19.1" y="37.8" transform="matrix(0.9797 -0.2007 0.2007 0.9797 -8.7438 5.3157)" class="st1" width="5.6" height="16"/>
					<path class="st2" d="M17.9,38.8l1.2-0.2l3.1,15L21,53.8L17.9,38.8L17.9,38.8z M22.2,37.9l0.5-0.1l3.1,15l-0.5,0.1L22.2,37.9z"
						/>
					
						<rect x="21.7" y="38" transform="matrix(0.9797 -0.2007 0.2007 0.9797 -8.7114 5.4201)" class="st3" width="1.3" height="15.4"/>
					<path class="st4" d="M20.3,38l2.3-0.5c-1,1.8-2.8,3.2-4.1,5.8l-0.4-2.1C18.6,40,19.4,39,20.3,38L20.3,38z M24.3,43.8l0.4,2.1
						c-1,2-2.9,3.4-4.4,6.3l-0.4-2.1C21,47.8,23.1,46.1,24.3,43.8z"/>
					<path class="st5" d="M19.3,39.2l0.4,2.1c-0.3,0.5-0.7,0.9-1,1.5l-0.4-2.1C18.6,40.2,18.9,39.7,19.3,39.2L19.3,39.2z M21.1,48.2
						l0.4,2.1c-0.3,0.5-0.7,0.9-1,1.5l-0.4-2.1C20.4,49.1,20.8,48.7,21.1,48.2L21.1,48.2z M23.7,44.9c0.1-0.2,0.3-0.4,0.4-0.6
						l0.4,2.1c-0.1,0.2-0.3,0.4-0.4,0.6L23.7,44.9L23.7,44.9z M22.4,37.8c0,0.1-0.1,0.1-0.1,0.2l0-0.2L22.4,37.8z"/>
					<path class="st6" d="M20.2,38.3l1.3-0.3l0.2,0.8c-0.3,0.4-0.7,0.8-1.1,1.3L20.2,38.3L20.2,38.3z M23.1,45.7l0.4,2.1
						c-0.3,0.4-0.7,0.8-1.1,1.3L22,47.1C22.4,46.6,22.7,46.2,23.1,45.7z"/>
					<path class="st7" d="M23.4,39.4l0.4,2.1c-1,2-2.9,3.4-4.4,6.3L19,45.6C20.1,43.3,22.2,41.7,23.4,39.4L23.4,39.4z M25.2,48.3
						l0.4,2.1c-0.5,1.1-1.4,2.1-2.3,3.2l-2.2,0.5C22.3,52,24.1,50.5,25.2,48.3z"/>
					<path class="st8" d="M20.2,43.7l0.4,2.1c-0.3,0.5-0.7,0.9-1,1.5l-0.4-2.1C19.5,44.7,19.8,44.2,20.2,43.7L20.2,43.7z M22,52.7
						l0.2,0.9l-0.9,0.2C21.5,53.4,21.8,53,22,52.7L22,52.7z M24.6,49.4c0.1-0.2,0.3-0.4,0.4-0.6l0.4,2.1c-0.1,0.2-0.3,0.4-0.4,0.6
						L24.6,49.4L24.6,49.4z M22.7,40.4c0.1-0.2,0.3-0.4,0.4-0.6l0.4,2.1c-0.1,0.2-0.3,0.4-0.4,0.6L22.7,40.4z"/>
					<path class="st9" d="M22.1,41.3l0.4,2.1c-0.3,0.4-0.7,0.8-1.1,1.3l-0.4-2.1C21.4,42.1,21.8,41.7,22.1,41.3L22.1,41.3z M24,50.2
						l0.4,2.1c-0.2,0.3-0.5,0.6-0.8,0.9l-0.4,0.1l-0.4-1.8C23.3,51.1,23.6,50.7,24,50.2z"/>
					<path class="st10" d="M17.6,38.5l5.4-1.1c0.2,0,0.4-0.3,0.3-0.5l0-0.1c0-0.2-0.3-0.4-0.5-0.3l-5.4,1.1c-0.2,0-0.4,0.3-0.3,0.5
						l0,0.1C17.1,38.4,17.3,38.6,17.6,38.5z"/>
					<path class="st11" d="M17.6,38.3l1.3-0.3l-0.1-0.6l-1.3,0.3L17.6,38.3L17.6,38.3z M22.3,37.4l0.5-0.1l-0.1-0.6l-0.5,0.1
						L22.3,37.4z"/>
					
						<rect x="20" y="37.1" transform="matrix(0.9797 -0.2007 0.2007 0.9797 -7.0801 4.9195)" class="st12" width="1.4" height="0.6"/>
					<path class="st13" d="M22.8,36.5c-0.5-1.2-1.8-2-3.2-1.7c-1.4,0.3-2.3,1.5-2.3,2.8c0,0,0,0,0,0L22.8,36.5
						C22.8,36.5,22.8,36.5,22.8,36.5z"/>
					<path class="st14" d="M22.4,36.3c-0.4-0.7-1.1-1.2-1.9-1.3c0.5,0.2,0.9,0.7,1.3,1.4L22.4,36.3L22.4,36.3z M19.6,35.1
						c-1.1,0.3-1.9,1.2-2,2.2l1.2-0.2C18.8,36.1,19.1,35.4,19.6,35.1z"/>
					<path class="st15" d="M21.1,36.6c-0.4-1-0.8-1.6-1.1-1.6c-0.3,0.1-0.3,0.8-0.1,1.8L21.1,36.6z"/>
					<path class="st16" d="M20.8,54.2l5.4-1.1c0.2,0,0.4,0.1,0.5,0.3l0,0.1c0,0.2-0.1,0.4-0.3,0.5l-5.4,1.1c-0.2,0-0.4-0.1-0.5-0.3
						l0-0.1C20.4,54.4,20.5,54.2,20.8,54.2z"/>
					<path class="st17" d="M20.9,54.3l1.3-0.3l0.1,0.6L21,54.9L20.9,54.3L20.9,54.3z M25.5,53.4l0.5-0.1l0.1,0.6l-0.5,0.1L25.5,53.4
						z"/>
					
						<rect x="23.4" y="53.7" transform="matrix(0.9797 -0.2007 0.2007 0.9797 -10.3386 5.9384)" class="st3" width="1.4" height="0.6"/>
					<path class="st18" d="M26.4,54c0,1.3-0.9,2.5-2.3,2.8c-1.4,0.3-2.7-0.5-3.2-1.7c0,0,0,0,0,0L26.4,54C26.4,54,26.4,54,26.4,54z"
						/>
					<path class="st19" d="M26.1,54.3l-0.6,0.1c-0.1,0.8-0.6,1.4-1.3,1.6c-0.7,0.1-1.2-0.3-1.6-1l-1.4,0.3c0.6,1,1.7,1.5,2.8,1.3
						C25.2,56.3,26,55.4,26.1,54.3z"/>
					<path class="st20" d="M25,54.5c0,0.6-0.3,1.1-0.7,1.2c-0.4,0.1-0.8-0.3-1-0.8L25,54.5z"/>
				</g>
				<g>
					
						<rect x="70.2" y="43" transform="matrix(0.2007 -0.9797 0.9797 0.2007 17.6099 113.1623)" class="st1" width="16" height="5.6"/>
					<path class="st2" d="M82.1,38.8l-1.2-0.2l-3.1,15l1.2,0.2L82.1,38.8L82.1,38.8z M77.8,37.9l-0.5-0.1l-3.1,15l0.5,0.1L77.8,37.9
						z"/>
					
						<rect x="69.9" y="45" transform="matrix(0.2007 -0.9797 0.9797 0.2007 17.2906 112.5541)" class="st3" width="15.4" height="1.3"/>
					<path class="st4" d="M79.7,38l-2.3-0.5c1,1.8,2.8,3.2,4.1,5.8l0.4-2.1C81.4,40,80.6,39,79.7,38L79.7,38z M75.7,43.8L75.3,46
						c1,2,2.9,3.4,4.4,6.3l0.4-2.1C79,47.8,76.9,46.1,75.7,43.8z"/>
					<path class="st5" d="M80.7,39.2l-0.4,2.1c0.3,0.5,0.7,0.9,1,1.5l0.4-2.1C81.4,40.2,81.1,39.7,80.7,39.2L80.7,39.2z M78.9,48.2
						l-0.4,2.1c0.3,0.5,0.7,0.9,1,1.5l0.4-2.1C79.6,49.1,79.2,48.7,78.9,48.2L78.9,48.2z M76.3,44.9c-0.1-0.2-0.3-0.4-0.4-0.6
						l-0.4,2.1c0.1,0.2,0.3,0.4,0.4,0.6L76.3,44.9L76.3,44.9z M77.6,37.8c0,0.1,0.1,0.1,0.1,0.2l0-0.2L77.6,37.8z"/>
					<path class="st6" d="M79.8,38.3L78.5,38l-0.2,0.8c0.3,0.4,0.7,0.8,1.1,1.3L79.8,38.3L79.8,38.3z M76.9,45.7l-0.4,2.1
						c0.3,0.4,0.7,0.8,1.1,1.3l0.4-2.1C77.6,46.6,77.3,46.2,76.9,45.7z"/>
					<path class="st7" d="M76.6,39.4l-0.4,2.1c1,2,2.9,3.4,4.4,6.3l0.4-2.1C79.9,43.3,77.8,41.7,76.6,39.4L76.6,39.4z M74.8,48.3
						l-0.4,2.1c0.5,1.1,1.4,2.1,2.3,3.2l2.2,0.5C77.7,52,75.9,50.5,74.8,48.3z"/>
					<path class="st8" d="M79.8,43.7l-0.4,2.1c0.3,0.5,0.7,0.9,1,1.5l0.4-2.1C80.5,44.7,80.2,44.2,79.8,43.7L79.8,43.7z M78,52.7
						l-0.2,0.9l0.9,0.2C78.5,53.4,78.2,53,78,52.7L78,52.7z M75.4,49.4c-0.1-0.2-0.3-0.4-0.4-0.6l-0.4,2.1c0.1,0.2,0.3,0.4,0.4,0.6
						L75.4,49.4L75.4,49.4z M77.3,40.4c-0.1-0.2-0.3-0.4-0.4-0.6l-0.4,2.1c0.1,0.2,0.3,0.4,0.4,0.6L77.3,40.4z"/>
					<path class="st9" d="M77.9,41.3l-0.4,2.1c0.3,0.4,0.7,0.8,1.1,1.3l0.4-2.1C78.6,42.1,78.2,41.7,77.9,41.3L77.9,41.3z M76,50.2
						l-0.4,2.1c0.2,0.3,0.5,0.6,0.8,0.9l0.4,0.1l0.4-1.8C76.7,51.1,76.4,50.7,76,50.2z"/>
					<path class="st10" d="M82.4,38.5l-5.4-1.1c-0.2,0-0.4-0.3-0.3-0.5l0-0.1c0-0.2,0.3-0.4,0.5-0.3l5.4,1.1c0.2,0,0.4,0.3,0.3,0.5
						l0,0.1C82.9,38.4,82.7,38.6,82.4,38.5z"/>
					<path class="st11" d="M82.4,38.3L81.1,38l0.1-0.6l1.3,0.3L82.4,38.3L82.4,38.3z M77.7,37.4l-0.5-0.1l0.1-0.6l0.5,0.1L77.7,37.4
						z"/>
					
						<rect x="79" y="36.7" transform="matrix(0.2007 -0.9797 0.9797 0.2007 26.7454 107.542)" class="st12" width="0.6" height="1.4"/>
					<path class="st13" d="M77.2,36.5c0.5-1.2,1.8-2,3.2-1.7c1.4,0.3,2.3,1.5,2.3,2.8c0,0,0,0,0,0L77.2,36.5
						C77.2,36.5,77.2,36.5,77.2,36.5z"/>
					<path class="st14" d="M77.6,36.3c0.4-0.7,1.1-1.2,1.9-1.3c-0.5,0.2-0.9,0.7-1.3,1.4L77.6,36.3L77.6,36.3z M80.4,35.1
						c1.1,0.3,1.9,1.2,2,2.2L81.2,37C81.2,36.1,80.9,35.4,80.4,35.1z"/>
					<path class="st15" d="M78.9,36.6c0.4-1,0.8-1.6,1.1-1.6c0.3,0.1,0.3,0.8,0.1,1.8L78.9,36.6z"/>
					<path class="st16" d="M79.2,54.2l-5.4-1.1c-0.2,0-0.4,0.1-0.5,0.3l0,0.1c0,0.2,0.1,0.4,0.3,0.5l5.4,1.1c0.2,0,0.4-0.1,0.5-0.3
						l0-0.1C79.6,54.4,79.5,54.2,79.2,54.2z"/>
					<path class="st17" d="M79.1,54.3l-1.3-0.3l-0.1,0.6l1.3,0.3L79.1,54.3L79.1,54.3z M74.5,53.4l-0.5-0.1l-0.1,0.6l0.5,0.1
						L74.5,53.4z"/>
					
						<rect x="75.6" y="53.3" transform="matrix(0.2007 -0.9797 0.9797 0.2007 7.7851 117.4687)" class="st3" width="0.6" height="1.4"/>
					<path class="st18" d="M73.6,54c0,1.3,0.9,2.5,2.3,2.8c1.4,0.3,2.7-0.5,3.2-1.7c0,0,0,0,0,0L73.6,54C73.6,54,73.6,54,73.6,54z"
						/>
					<path class="st19" d="M73.9,54.3l0.6,0.1c0.1,0.8,0.6,1.4,1.3,1.6c0.7,0.1,1.2-0.3,1.6-1l1.4,0.3c-0.6,1-1.7,1.5-2.8,1.3
						C74.8,56.3,74,55.4,73.9,54.3z"/>
					<path class="st20" d="M75,54.5c0,0.6,0.3,1.1,0.7,1.2c0.4,0.1,0.8-0.3,1-0.8L75,54.5z"/>
				</g>
			</g>
			<g>
				<g>
					<path class="st21" d="M65.2,40.7c-0.9,2.8-5.7,6.6-3.1,7.8l2.2,1.1l2.2,1.1c2.6,1.2,2.6-4.9,4.3-7.3c0,0-0.1,0-0.1,0L65.2,40.7
						C65.3,40.8,65.3,40.7,65.2,40.7z"/>
					<path class="st22" d="M70.6,43.4l-5.3-2.6c-0.2-0.1-0.3-0.4-0.2-0.6l0.1-0.1c0.1-0.2,0.4-0.3,0.6-0.2l5.3,2.6
						c0.2,0.1,0.3,0.4,0.2,0.6l-0.1,0.1C71.1,43.4,70.8,43.5,70.6,43.4z"/>
					<path class="st2" d="M70.6,43.1l-1.3-0.6l0.3-0.6l1.3,0.6L70.6,43.1L70.6,43.1z M66.1,40.9l-0.5-0.3l0.3-0.6l0.5,0.3L66.1,40.9
						z"/>
					<polygon class="st3" points="68.2,42 66.8,41.3 67.1,40.7 68.5,41.4 					"/>
					<path class="st23" d="M70.4,43.5l-2.5-1.2l-2.5-1.2c-0.7,2.6-5.3,6.2-2.9,7.3l2,1l2,1C68.7,51.5,68.8,45.7,70.4,43.5L70.4,43.5
						z M68.6,42.9c0.1,0,0.4,0.2,0.3,0.4c-1.2,2.1-1.9,6.7-3.4,6l-1.3-0.6l-1.3-0.6c-1.5-0.7,1.8-4.1,2.7-6.4
						c0.1-0.2,0.2-0.1,0.3-0.1l1.4,0.7L68.6,42.9z"/>
					<path class="st24" d="M66.1,42.4c-0.9,1.9-3.1,4.9-2.4,5.3l0.6,0.3l0.6,0.3c0.7,0.3,1.7-3.2,2.7-5.1
						C67.9,42.8,66.3,41.9,66.1,42.4z"/>
					<path class="st25" d="M65.7,39.8c1-3,1.4-5.8,1.7-8c0-0.3,0.2-0.5,0.5-0.5c3.7-0.2,6.6,1.3,8.8,4.4c0.1,0.2,0,0.3-0.1,0.4
						c-1.6,1.6-3.6,3.6-5.3,6.3c0,0-0.1,0-0.1-0.1L65.7,39.8C65.7,39.8,65.7,39.8,65.7,39.8z"/>
					<path class="st26" d="M76.2,35.9c-1.5,1.3-3.6,3.9-5.1,6.2l-1.4-0.7c1.6-2.5,3.1-5,4.7-7.4C75,34.6,75.7,35.2,76.2,35.9
						L76.2,35.9z M66.8,40.1L66,39.7c0.9-2.7,1.6-5.9,1.8-7.9c0.6,0,1,0,1.6,0.1C68.5,34.7,67.6,37.5,66.8,40.1z"/>
					<path class="st27" d="M76.3,35.6c-2.3,2.6-3.4,3.7-5.4,6.6c0,0-0.1,0-0.1-0.1C71.3,41.4,75.8,35.1,76.3,35.6z"/>
					<path class="st28" d="M75.9,35.2c-2.3,2.7-3.3,3.9-5.3,6.9c0,0-0.1,0-0.1-0.1C71,41.3,75.5,34.7,75.9,35.2z"/>
					<path class="st27" d="M75.6,34.8c-2.2,2.7-3.3,4.1-5.2,7.1c0,0-0.1,0-0.1-0.1C70.8,41.1,75.2,34.4,75.6,34.8z"/>
					<path class="st29" d="M75.2,34.5c-2.1,2.8-3.3,4.3-5.1,7.3c0,0-0.1,0-0.1-0.1C70.5,41,74.8,34.1,75.2,34.5z"/>
					<path class="st28" d="M74.9,34.1c-1.8,2.5-3.4,4.9-5,7.6c0,0-0.1,0-0.1-0.1C70.2,40.8,74.5,33.8,74.9,34.1z"/>
					<path class="st27" d="M74.5,33.8c-1.7,2.6-3.3,5.1-4.9,7.8c0,0-0.1,0-0.1-0.1C70,40.6,74.1,33.5,74.5,33.8z"/>
					<path class="st30" d="M74.1,33.5c-1.6,2.6-3.2,5.2-4.7,7.9c0,0-0.1,0-0.1-0.1C69.7,40.5,73.6,33.2,74.1,33.5z"/>
					<path class="st29" d="M73.6,33.2c-1.6,2.8-3,5.3-4.5,8.1c0,0-0.1,0-0.1-0.1C69.4,40.3,73.2,33,73.6,33.2z"/>
					<path class="st29" d="M73.2,32.9l-4.4,8.2c0,0-0.1,0-0.1-0.1C69.2,40.2,72.8,32.7,73.2,32.9z"/>
					<path class="st30" d="M72.7,32.7l-4.2,8.4c0,0-0.1,0-0.1-0.1C68.9,40.1,72.3,32.5,72.7,32.7z"/>
					<path class="st29" d="M72.2,32.5l-4,8.5c0,0-0.1,0-0.1-0.1C68.6,39.9,71.8,32.3,72.2,32.5z"/>
					<path class="st30" d="M71.8,32.3c-1.2,2.9-2.4,5.6-3.7,8.5c0,0-0.1,0-0.1-0.1C68.3,39.8,71.4,32.1,71.8,32.3z"/>
					<path class="st30" d="M71.3,32.1c-1.1,2.9-2.3,5.7-3.5,8.6c0,0-0.1,0-0.1-0.1C68.1,39.7,70.9,32,71.3,32.1z"/>
					<path class="st29" d="M70.8,31.9c-1,2.9-2.1,5.7-3.3,8.6c0,0-0.1,0-0.1-0.1C67.8,39.5,70.4,31.9,70.8,31.9z"/>
					<path class="st30" d="M70.3,31.8c-1,3.3-1.7,5.4-3,8.6c0,0-0.1,0-0.1-0.1C67.5,39.4,70,31.8,70.3,31.8z"/>
					<path class="st27" d="M69.8,31.7c-1,3.3-1.5,5.3-2.8,8.6c0,0-0.1,0-0.1-0.1C67.2,39.3,69.5,31.7,69.8,31.7z"/>
					<path class="st28" d="M69.3,31.7c-0.9,3.4-1.7,5.8-2.5,8.5c0,0-0.1,0-0.1-0.1C66.9,39.2,69,31.6,69.3,31.7z"/>
					<path class="st29" d="M68.8,31.6C68,35,67.6,36.7,66.5,40c0,0-0.1,0-0.1-0.1C67.3,37.5,68.5,31.6,68.8,31.6z"/>
					<path class="st28" d="M68.3,31.6c-0.6,3.4-0.9,5-2.1,8.3c0,0-0.1,0-0.1-0.1C66.9,37.3,68.1,31.6,68.3,31.6z"/>
					<path class="st30" d="M67.8,31.6c-0.5,3.4-0.8,4.9-1.8,8.2c0,0-0.1,0-0.1,0C66.9,36.8,67.6,31.6,67.8,31.6z"/>
					<path class="st30" d="M76.6,36c-2.4,2.5-3.4,3.5-5.4,6.4c0,0-0.1,0-0.1-0.1C71.6,41.6,76.1,35.4,76.6,36z"/>
				</g>
				<g>
					<g>
						<g>
							<path class="st13" d="M28.3,40c0,1.4,1.5,1.5,1.3,2.8l-1.7,10.5L27.8,54c-0.1,0.9-3.6,0.3-3.3-0.7c1-4.3,1.6-8.5,2.6-12.8
								c0.7-3.2,0.3-7.3,2.3-9c1-0.9,1.1-2.6,0.1-4.6c0,0,0.7-1.1,1.2-0.1c0.7,1.2,1,3.5-0.2,6.7C29.9,34.9,28.4,38.6,28.3,40z"/>
							<path class="st31" d="M29.6,26.9c0.4,0.8,0.7,1.7,0.7,2.5c0,0.7-0.1,1.4-0.6,1.9c-0.1,0.1-0.2,0.2-0.2,0.2
								c-0.7,0.6-1.1,1.6-1.3,2.5c-0.3,1.1-0.4,2.4-0.5,3.5c-0.1,0.9-0.2,1.9-0.4,2.8c-0.9,4.3-1.6,8.6-2.6,12.8
								c-0.1,0.3,0.1,0.3,0.2,0.4c0,0,0-0.1,0-0.1c0,0,0-0.1,0-0.1c1-4.3,1.6-8.5,2.6-12.7c0.5-2.2,0.5-4.3,1-6.4
								c0.4-1.6,0.5-1.8,1.6-3c1.1-1.3,0.5-3.2-0.2-4.5c0.1-0.1,0.1-0.1,0.2-0.2c0.1-0.1,0.1-0.2-0.1-0.1
								C29.8,26.6,29.7,26.8,29.6,26.9L29.6,26.9z M29.3,42c-0.2-0.3-0.5-0.5-0.8-0.9C28.8,41.4,29.1,41.7,29.3,42z"/>
							<path class="st3" d="M29.4,42.1c-0.3-0.7-1.2-1-1.2-2.1c0-0.5,0.2-1,0.3-1.5c0.2-0.6,0.4-1.3,0.6-1.9
								c0.4-1.1,0.8-2.1,1.2-3.2c0.5-1.3,0.8-2.6,0.8-4c0-0.9-0.2-1.8-0.6-2.5c-0.1-0.2-0.2-0.4-0.4-0.4c0.1,0.1,0.2,0.2,0.2,0.3
								c0.4,0.8,0.5,1.7,0.6,2.5c0,1.4-0.3,2.7-0.8,4c-0.4,1.1-0.8,2.1-1.2,3.2c-0.2,0.6-0.4,1.3-0.6,1.9c-0.1,0.5-0.3,1-0.3,1.5
								C28,40.9,28.9,41.5,29.4,42.1z"/>
						</g>
						<path class="st3" d="M25.3,53.1c0.9-4,1.3-7.1,2.2-11.1c0-0.2,0.1-0.3,0.3-0.3c0.5,0,1,0.2,1.3,0.5c-0.2-0.5-0.9-0.8-1.6-0.8
							c-0.2,0-0.2,0.1-0.3,0.3c-0.9,4-1.4,7.6-2.3,11.6c-0.2,0.7,1.9,1.2,2.5,0.7C26.9,54.1,25.1,54,25.3,53.1z"/>
						<path class="st32" d="M29.3,42.5c-0.3-0.3-0.9-0.5-1.3-0.6c0,0,0,0-0.1,0c-0.1,0-0.2,0.1-0.3,0.2l-2.2,11c0,0,0,0.1,0,0.1
							c0,0.2,0.2,0.3,0.4,0.4c0.2,0.1,1,0.3,1.4,0.2c-0.3,0-1.1-0.1-1-0.6l2-10.6C28.4,42.3,29.1,42.4,29.3,42.5z"/>
						<path class="st3" d="M27.3,53.6c0.4,0,0.4-0.1,0.5-0.5L29.4,43c0-0.1-0.1-0.2-0.2-0.3L27.3,53.6z"/>
					</g>
					<g>
						<path class="st33" d="M27.6,35c1.9,6.1,3.6,12.5,4.8,18.8c0.5,2.3,4.6,1.1,4.1-1.2c-1.4-6.2-3.6-12.5-5.6-18.5
							C29.9,31.3,26.7,32.2,27.6,35z"/>
						<path class="st34" d="M33.5,53.8c-0.3-0.2-0.4-0.4-0.5-0.7c-1.2-6.3-2.9-12.7-4.8-18.8c-0.1-0.3-0.1-0.6-0.1-0.8
							c0-0.3-0.1-0.4-0.2-0.1c-0.2,0.4-0.2,0.9,0,1.5c1.9,6.2,3.6,12.5,4.8,18.8c0.1,0.3,0.2,0.6,0.5,0.7c0.5,0.3,1.2,0.3,1.8,0
							c0.4-0.2,0.8-0.5,1-0.8c0.1-0.2-0.1-0.2-0.1-0.1c-0.2,0.1-0.3,0.2-0.5,0.3C34.8,54.1,34,54.2,33.5,53.8z"/>
						<path class="st35" d="M33,43.3c1,3.2,1.9,6.4,2.7,9.6c0.1,0.5,0.5,0,0.4-0.2c-0.7-3.2-1.7-6.4-2.6-9.6c-0.9-3-1.9-6-3-8.9
							c-0.3-1-1-1.4-1.5-1.4c-0.6,0-0.2,0.1,0,0.2c0.4,0.2,0.8,0.6,1.1,1.3C31,37.3,32.1,40.3,33,43.3z"/>
					</g>
					<g>
						<polygon class="st2" points="28.4,37.7 28.4,37.9 31.7,36.7 31.6,36.5 						"/>
						<polygon class="st36" points="29.3,37.5 29.2,37.3 28.7,37.5 28.8,37.7 						"/>
						<polygon class="st37" points="31.4,36.8 31.3,36.6 30.9,36.8 30.9,37 						"/>
					</g>
					<g>
						<path class="st37" d="M27.6,35c0.3,0.9,0.5,1.7,0.8,2.6l3.3-1.2c-0.3-0.8-0.5-1.6-0.8-2.4C29.9,31.3,26.7,32.2,27.6,35z"/>
						<path class="st2" d="M29.2,37.3c-0.3-1-0.6-2.1-0.9-3.1c-0.1-0.3-0.1-0.6-0.1-0.8c0-0.3-0.1-0.4-0.2-0.1
							c-0.2,0.4-0.2,0.9,0,1.5c0.3,0.9,0.5,1.7,0.8,2.6L29.2,37.3z"/>
						<path class="st3" d="M31.3,36.6c-0.3-0.8-0.5-1.6-0.8-2.4c-0.3-1-1-1.4-1.5-1.4c-0.6,0-0.2,0.1,0,0.2c0.4,0.2,0.8,0.6,1.1,1.3
							c0.3,0.8,0.6,1.6,0.8,2.5L31.3,36.6z"/>
					</g>
					<g>
						<path class="st36" d="M29.5,34c0-0.3-0.3-0.5-0.6-0.4c-0.3,0-0.5,0.3-0.4,0.6c0,0.3,0.3,0.5,0.6,0.4
							C29.3,34.5,29.5,34.2,29.5,34z"/>
						<path class="st2" d="M29.4,33.9c0-0.2-0.2-0.4-0.5-0.4c-0.2,0-0.4,0.2-0.4,0.5c0,0.2,0.2,0.4,0.5,0.4
							C29.3,34.4,29.5,34.2,29.4,33.9z"/>
						<path class="st36" d="M28.8,33.8c0,0.2,0.2,0.4,0.4,0.3c0.1,0,0.1,0,0.2-0.1c0,0.1-0.2,0.3-0.3,0.3c-0.2,0-0.4-0.1-0.4-0.3
							c0-0.1,0-0.3,0.2-0.3C28.8,33.7,28.8,33.8,28.8,33.8z"/>
						<path class="st37" d="M29.3,34c-0.2,0-0.4-0.1-0.4-0.3c0,0,0,0,0,0c0,0,0,0,0,0C29.2,33.6,29.4,33.7,29.3,34
							C29.4,34,29.4,34,29.3,34C29.4,34,29.4,34,29.3,34z"/>
					</g>
				</g>
				<g>
					<path class="st13" d="M58.6,41.3c0.2,0.3,0.3,0.5,0.5,0.7l1.6,1.6c-0.1,0.3-0.1,0.6-0.1,1l-0.4,3.9L58,62.7
						c0,0.3-0.3,0.6-0.5,0.6c-0.3,0-0.7-0.1-0.7-0.6l0.2-14.3l0.2-4.3c0-0.7-0.1-1.5-0.3-2.4L58.6,41.3z"/>
					<path class="st13" d="M61.4,41.9c-0.4,0.9-0.7,1.6-0.8,1.7l-1.6-1.6l0,0c0,0,0,0,0,0c0.2-0.2,0.4-0.4,0.7-0.7L61.4,41.9z"/>
					<path class="st38" d="M57.1,49.4l0.4,13.9l0,0c0.1,0,0.2-0.1,0.3-0.3l-0.3-12.2C57.5,50.2,57.4,49.9,57.1,49.4z"/>
					<path class="st39" d="M57.5,63.3l-0.4-13.9L57,54.1l0.3,9C57.3,63.1,57.4,63.2,57.5,63.3z"/>
					<g>
						<path class="st31" d="M58.9,44.2c-0.6,0-1.1,0.4-1.1,0.9c0,0.5,0.4,1,1,1c0.6,0,1.1-0.4,1.1-0.9
							C59.9,44.6,59.4,44.2,58.9,44.2z"/>
						<path class="st13" d="M58.8,44.2c-0.5,0-0.9,0.3-1,0.8c0,0.5,0.4,0.9,0.9,0.9c0.5,0,0.9-0.3,1-0.8
							C59.7,44.7,59.3,44.3,58.8,44.2z"/>
						<path class="st31" d="M58.3,45.4c0.4,0,0.8-0.3,0.8-0.7c0-0.1,0-0.2-0.1-0.3c0.3,0.1,0.5,0.4,0.5,0.7c0,0.4-0.4,0.7-0.8,0.7
							c-0.3,0-0.5-0.2-0.6-0.4C58.2,45.4,58.2,45.4,58.3,45.4z"/>
						<path class="st39" d="M58.8,44.5c0,0.4-0.4,0.7-0.8,0.7c0,0,0,0,0,0c0,0,0,0,0-0.1C58,44.7,58.4,44.4,58.8,44.5
							C58.8,44.4,58.8,44.4,58.8,44.5C58.8,44.4,58.8,44.4,58.8,44.5z"/>
					</g>
					<path class="st39" d="M60.3,43.1l-1-1c0.2-0.2,0.4-0.4,0.6-0.7l0.4,0.1c-0.2,0.2-0.4,0.5-0.6,0.7l0.6,0.6L60.3,43.1L60.3,43.1z
						 M57.5,43.1c0.3-0.2,0.2-0.9,0.1-1.6l-0.3,0.1c0.1,0.4,0.1,0.8,0.2,1.1c0,0.1,0,0.1,0,0.2l0,0.1C57.5,43.1,57.5,43.1,57.5,43.1
						z"/>
					<path class="st31" d="M59.9,43.6c-0.6-0.6-1.2-1.4-1.7-2.2l0.2,0c0.3,0.5,0.6,0.9,1,1.3c0.2,0.2,0.4,0.4,0.6,0.5
						c0.1,0.1,0.2,0.3,0.4,0.4l0.1,0.1c0,0.2-0.1,0.4-0.1,0.6c-0.2,1.4-0.3,2.8-0.4,4.1l-2,13.7l0-1l1.8-12.7l0.3-3
						c0.1-0.5,0.1-1,0-1.3C60.1,43.9,60.1,43.8,59.9,43.6L59.9,43.6z M60.6,43.3c0.2-0.3,0.4-0.9,0.7-1.5l-0.2-0.1
						c-0.2,0.5-0.4,0.9-0.5,1.2C60.5,43.2,60.5,43.1,60.6,43.3z"/>
					<path class="st40" d="M56.2,24.8c1.4,1.8,0,3.1,1.9,4.1c1.1,0.5,1.7,1.6,1.8,2.7c0.1,1.1-0.5,2.1-1.4,2.7
						c-0.4,0.2-0.6,0.5-0.7,0.8c-0.7,1.5-0.3,4.2,0.9,6.2l-1.6,0.3c-0.2-0.9-0.5-1.8-0.8-2.6c-0.2-0.6-0.4-1-0.3-1.6
						c0.2-0.9-0.1-2.1-0.2-2.2c-0.2-0.4-0.7-0.6-1-0.8c-0.9-0.6-1.5-1.5-1.5-2.6c-0.1-1.3,0.7-2.5,2-3.1c1.4-0.6,1-2.3,0.1-3.2
						C54.9,25.2,55.6,24.1,56.2,24.8L56.2,24.8z M56.5,29.5c-1.3,0-2.2,1.1-2.2,2.3c0.1,1.2,1.1,2.2,2.4,2.1c1.3,0,2.2-1.1,2.2-2.3
						C58.8,30.4,57.7,29.5,56.5,29.5z"/>
					<path class="st40" d="M64.1,29.2c1.6,0.3,3,2,2.6,3.7c-0.2,1.1-1,2-2.1,2.4c-0.2,0.1-1.2,0.4-1.2,0.9c0,1-1.2,3.8-2,5.7
						l-1.6-0.5c1.2-1.4,2.5-4.2,1.9-5.8c-0.2-0.5-0.5-0.9-0.7-1.1c-0.5-0.6-0.8-1.2-0.9-1.9c0-0.2-0.2-0.3-0.3-0.5
						c-0.1-0.1,0-0.5,0.1-0.7c0.2-0.3,0.2,0,0.6-0.6C61.3,29.5,62.5,28.9,64.1,29.2L64.1,29.2z M63.9,30.1c-1.2-0.2-2.5,0.5-2.7,1.7
						c-0.3,1.2,0.5,2.4,1.8,2.6c1.2,0.2,2.5-0.5,2.7-1.7C66,31.5,65.2,30.4,63.9,30.1z"/>
					<path class="st41" d="M57.2,41.6l0.3-0.1c-0.1-0.6-0.3-1.1-0.3-1.3c-0.2-0.5-0.4-1-0.5-1.5c-0.1-0.5-0.2-0.9-0.1-1.4
						c0.1-0.8,0.2-2.2-0.8-2.5c-0.2-0.1,0.1,0.1,0.2,0.4c0.3,0.5,0.3,1.6,0.2,2.2c0,0.1,0,0.2,0,0.3c0,0.8,0.5,2,0.8,2.8
						C57.1,40.9,57.2,41.2,57.2,41.6L57.2,41.6z M60,41.4c0.6-0.7,1.1-1.6,1.4-2.3c0.5-1,0.9-2.5,0.5-3.6c-0.4-1.2-1.4-1.3-1.6-3
						c0-0.4-0.4-0.3-0.4-0.7c0-0.1,0.1-0.3,0.3-0.4c0.2-0.1,0.4-0.4,0.5-0.6c0.3-0.4,0.6-0.8,1-1.1c0.1,0.2-0.6,0.7-0.7,1
						c-0.4,0.7-0.4,0.5-0.5,0.7c-0.1,0.1-0.2,0.4-0.1,0.5c0.1,0.1,0.2,0.2,0.2,0.4c0,0.4,0.1,0.9,0.3,1.3c0.2,0.3,0.4,0.5,0.6,0.7
						c0.3,0.3,0.6,0.6,0.8,1.1c0.4,1.1-0.1,2.6-0.6,3.6c-0.4,0.8-0.8,1.6-1.3,2.4L60,41.4L60,41.4z M64,30c-0.2,0-0.3,0-0.5,0
						c0.8-0.3,1.7,0.3,2.1,0.9c0.9,1.2,0.7,3.2-1,3.5c0.6-0.3,1.1-0.9,1.3-1.6C66.2,31.5,65.3,30.2,64,30L64,30z M54.6,29.4
						c-0.6,0.5-1.1,1.3-1.2,2.1c0,0.1,0,0.2,0,0.3l0,0.1c0.1,1,0.5,1.8,1.4,2.4c-1.4-1.3-1.5-3-0.2-4.4c0.5-0.5,0.9-0.6,1.4-1
						c0.9-0.7,0.4-2.5-0.3-3.4c-0.3-0.3-0.1-0.4-0.2-0.4c-0.2,0.1-0.1,0.4-0.1,0.4c0.7,0.8,1.3,2.3,0.3,3.2C55.4,29,55,29,54.6,29.4
						L54.6,29.4z M57.4,34c1-0.3,1.7-1.3,1.6-2.3c-0.1-1.3-1.2-2.3-2.5-2.3l0,0c1.4-0.3,2.6,0.9,2.7,2.3c0,0.7-0.2,1.3-0.6,1.8
						C58.2,33.9,57.7,34,57.4,34z"/>
					<path class="st34" d="M58.2,41.4c-0.9-1.6-1.5-3.5-1.3-5.2c0-0.4,0.1-0.7,0.3-1.1c0.2-0.3,0.4-0.5,0.6-0.7
						c1-0.9,1.7-1.2,1.6-2.7c-0.1-1-0.7-1.9-1.7-2.5c-1.9-1-0.5-2.4-2-4.1c-0.1-0.1-0.1-0.1-0.2-0.2c0.2-0.2,0.4-0.2,0.5,0
						c1.3,1.7,0,3.1,2,4.1c1.3,0.6,2,2,1.6,3.4c0,0.2-0.1,0.3-0.1,0.4c0,0.1-0.1,0.2-0.2,0.3c-0.5,0.9-1.3,1-1.8,1.9
						c-0.6,1-0.4,2.6-0.1,3.7c0.2,0.8,0.6,1.7,1,2.5L58.2,41.4L58.2,41.4z M61.1,41.8c0.8-1.9,1.9-4.8,1.9-5.8
						c0-0.4,0.5-0.6,0.9-0.6c-0.3,0.2-0.6,0.4-0.6,0.8c0,0.9-1.1,3.7-2,5.7L61.1,41.8L61.1,41.8z M61.8,29.7
						c0.6-0.4,1.4-0.5,2.3-0.3c1.6,0.3,2.8,2,2.4,3.5c-0.2,1-0.9,1.7-1.8,2.1c1.5-0.9,2-2.8,0.9-4.3c-0.5-0.6-1.1-1.1-1.9-1.3
						C63.1,29.3,62.4,29.4,61.8,29.7L61.8,29.7z M62.2,30.3c-1.3,0.6-1.9,2.1-1.1,3.3c0.7,1.2,2.3,1.5,3.5,0.8
						c-0.5,0.2-1,0.3-1.5,0.2C60.8,34.2,60.3,31.4,62.2,30.3L62.2,30.3z M55.6,29.5c-1.4,0.4-2.2,1.8-1.7,3.1c0.5,1.3,2,1.9,3.3,1.3
						c-0.5,0.1-1,0.1-1.5-0.1C53.7,33.2,53.6,30.4,55.6,29.5z"/>
				</g>
				<g>
					<path class="st13" d="M35.6,29.5l-3.1,1.1c-0.6,0.2-0.7,0.4-0.7,0.5c0,0.1,0.2,0.1,0.6,0l3.5-0.9c0.1,0,0.1,0.1,0,0.2l-3.5,0.9
						c-0.8,0.2-0.7,0.5,0.1,0.3l3.5-0.9c0.1,0,0.1,0.1,0,0.2l-3.5,0.9C31.9,32,32,32.2,32.7,32l3.5-0.9c0.1,0,0.1,0.1,0,0.2
						l-3.5,0.9c-0.8,0.2-0.7,0.5,0.1,0.3l3.5-0.9c0.1,0,0.1,0.1,0,0.2l-3.5,0.9C32.1,33,32.2,33.2,33,33l3.5-0.9
						c0.1,0,0.1,0.1,0,0.2L33,33.2c-0.8,0.2-0.7,0.5,0.1,0.3l3.5-0.9c0.1,0,0.1,0.1,0,0.2l-3.5,0.9c-0.8,0.2-0.7,0.5,0.1,0.3
						l3.5-0.9c0.1,0,0.1,0.1,0,0.2l-3.5,0.9c-0.8,0.2-0.7,0.5,0.1,0.3l3.5-0.9c0.1,0,0.1,0.1,0,0.2l-3.5,0.9
						c-0.8,0.2-0.7,0.5,0.1,0.3l3.5-0.9c0.1,0,0.1,0.1,0,0.2l-3.5,0.9c-0.8,0.2-0.7,0.5,0.1,0.3l3.5-0.9c0.1,0,0.1,0.1,0,0.2
						l-3.5,0.9c-0.8,0.2-0.7,0.5,0.1,0.3l3.5-0.9c0.1,0,0.1,0.1,0,0.2l-3.5,0.9c-0.8,0.2-0.7,0.5,0.1,0.3l3.5-0.9
						c0.1,0,0.1,0.1,0,0.2l-3.5,0.9c-0.8,0.2-0.7,0.5,0.1,0.3l3.5-0.9c0.1,0,0.1,0.1,0,0.2l-3.5,0.9c-0.8,0.2-0.7,0.5,0.1,0.3
						l3.5-0.9c0.1,0,0.1,0.1,0,0.2l-3.5,0.9c-0.8,0.2-0.7,0.5,0.1,0.3l3.5-0.9c0.1,0,0.1,0.1,0,0.2l-3.5,0.9
						c-0.8,0.2-0.7,0.5,0.1,0.3l3.5-0.9c0.1,0,0.1,0.1,0,0.2l-3.5,0.9c-0.8,0.2-0.7,0.5,0.1,0.3l3.5-0.9c0.1,0,0.1,0.1,0,0.2
						l-3.5,0.9c-0.8,0.2-0.7,0.5,0.1,0.3l3.5-0.9c0.1,0,0.1,0.1,0,0.2l-3.5,0.9C34,39.9,34,40.2,34.8,40l3.5-0.9
						c0.1,0,0.1,0.1,0,0.2l-3.5,0.9c-0.8,0.2-0.7,0.5,0.1,0.3l3.5-0.9c0.1,0,0.1,0.1,0,0.2L35,40.7c-0.8,0.2-0.7,0.5,0.1,0.3
						l3.5-0.9c0.1,0,0.1,0.1,0,0.2l-3.5,0.9c-0.8,0.2-0.7,0.5,0.1,0.3l3.5-0.9c0.1,0,0.1,0.1,0,0.2l-3.5,0.9
						c-0.8,0.2-0.7,0.5,0.1,0.3l3.5-0.9c0.1,0,0.1,0.1,0,0.2l-3.5,0.9c-0.8,0.2-0.7,0.5,0.1,0.3l3.5-0.9c0.1,0,0.1,0.1,0,0.2
						l-3.5,0.9c-0.8,0.2-0.7,0.5,0.1,0.3l3.5-0.9c0.1,0,0.1,0.1,0,0.2l-3.5,0.9c-0.8,0.2-0.7,0.5,0.1,0.3l3.5-0.9
						c0.1,0,0.1,0.1,0,0.2l-3.5,0.9c-0.8,0.2-0.7,0.5,0.1,0.3l3.5-0.9c0.1,0,0.1,0.1,0,0.2l-3.5,0.9c-0.8,0.2-0.7,0.5,0.1,0.3
						l3.5-0.9c0.1,0,0.1,0.1,0,0.2L36,44.6c-0.8,0.2-0.7,0.5,0.1,0.3l3.5-0.9c0.1,0,0.1,0.1,0,0.2l-3.5,0.9
						c-0.8,0.2-0.7,0.5,0.1,0.3l3.5-0.9c0.1,0,0.1,0.1,0,0.2l-3.5,0.9c-0.8,0.2-0.7,0.5,0.1,0.3l3.5-0.9l0,0c0.1,0,0.1,0.1,0,0.2
						l-3.5,0.9c-0.8,0.2-0.7,0.5,0.1,0.3l3.5-0.9c0.1,0,0.1,0.1,0,0.2l-3.5,0.9c-0.8,0.2-0.7,0.5,0.1,0.3l3.5-0.9
						c0.1,0,0.1,0.1,0,0.2l-3.5,0.9c-0.8,0.2-0.7,0.5,0.1,0.3l3.5-0.9c0.1,0,0.1,0.1,0,0.2l-3.5,0.9c-0.8,0.2-0.7,0.5,0.1,0.3
						l3.5-0.9c0.1,0,0.1,0.1,0,0.2l-3.5,0.9c-0.8,0.2-0.7,0.5,0.1,0.3l3.5-0.9c0.1,0,0.1,0.1,0,0.2l-3.5,0.9
						c-0.8,0.2-0.7,0.5,0.1,0.3l3.5-0.9c0.1,0,0.1,0.1,0,0.2l-3.5,0.9c-0.8,0.2-0.7,0.5,0.1,0.3l3.5-0.9c0.1,0,0.1,0.1,0,0.2
						l-3.5,0.9c-0.8,0.2-0.7,0.5,0.1,0.3l3.5-0.9c0.1,0,0.1,0.1,0,0.2l-3.5,0.9c-0.8,0.2-0.7,0.5,0.1,0.3l3.5-0.9
						c0.1,0,0.1,0.1,0,0.2l-3.5,0.9c-0.8,0.2-0.7,0.5,0.1,0.3l3.5-0.9c0.1,0,0.1,0.1,0,0.2l-3.5,0.9c-0.8,0.2-0.7,0.5,0.1,0.3
						l3.5-0.9c0.1,0,0.1,0.1,0,0.2l-3.5,0.9c-0.8,0.2-0.7,0.5,0.1,0.3l3.5-0.9c0.1,0,0.1,0.1,0,0.2L38,52.1
						c-0.8,0.2-0.7,0.5,0.1,0.3l3.5-0.9c0.1,0,0.1,0.1,0,0.2l-3.5,0.9c-0.8,0.2-0.7,0.5,0.1,0.3l3.5-0.9c0.1,0,0.1,0.1,0,0.2
						l-3.5,0.9c-0.8,0.2-0.7,0.5,0.1,0.3l3.5-0.9c0.1,0,0.1,0.1,0,0.2l-3.5,0.9c-0.8,0.2-0.7,0.5,0.1,0.3l3.5-0.9
						c0.1,0,0.1,0.1,0,0.2l-3.5,0.9c-0.8,0.2-0.7,0.5,0.1,0.3l3.5-0.9c0.1,0,0.1,0.1,0,0.2l-3.5,0.9c-0.8,0.2-0.7,0.5,0.1,0.3
						l3.5-0.9c0.1,0,0.1,0.1,0,0.2l-3.5,0.9c-0.8,0.2-0.7,0.5,0.1,0.3l3.5-0.9c0.1,0,0.1,0.1,0,0.2l-3.5,0.9
						c-0.8,0.2-0.7,0.5,0.1,0.3l3.5-0.9c0.1,0,0.1,0.1,0,0.2L39,56c-0.8,0.2-0.7,0.5,0.1,0.3l3.5-0.9c0.1,0,0.1,0.1,0,0.2l-3.5,0.9
						c-0.8,0.2-0.7,0.5,0.1,0.3l3.5-0.9c0.1,0,0.1,0.1,0,0.2L39.3,57c-0.8,0.2-0.7,0.5,0.1,0.3l3.5-0.9c0.1,0,0.1,0.1,0,0.2
						l-3.5,0.9c-0.8,0.2-0.7,0.5,0.1,0.3l3.5-0.9c0.1,0,0.1,0.1,0,0.2L39.6,58c-0.4,0.1-0.6,0.2-0.5,0.3c0,0.1,0.2,0.2,0.9,0.1
						l3.2-0.5c0.7-0.1,1.6-0.4,1.3-1.3l-3.3-12.4l-3.8-14.3C37.2,29.1,36.4,29.2,35.6,29.5z"/>
					<g>
						<path class="st39" d="M44,56.7l-7-26.8c-0.1-0.5-1-0.3-1.3-0.2l-3.1,1c-0.1,0-0.3,0.1-0.4,0.2c-0.1,0-0.1,0-0.1,0l0,0
							c0,0,0,0,0,0c0.1-0.1,0.4-0.2,0.5-0.3l3.1-1.1c0.5-0.2,1.4-0.4,1.6,0.3l7,26.6C44.3,56.6,44.1,56.9,44,56.7L44,56.7z
							 M39.3,57.7c0.1,0,0.2-0.1,0.2-0.1l3.5-0.9l0,0c0,0-0.1-0.1-0.1-0.1l-3.5,0.9c-0.1,0-0.3,0.1-0.4,0.1
							C39.1,57.7,39.2,57.7,39.3,57.7L39.3,57.7z M35.4,42.8l3.4-0.9l-3.1,0.8l0,0l0,0l0,0l0,0l0,0l0,0l0,0v0l0,0v0l0,0v0l0,0v0l0,0
							v0l0,0l0,0l0,0v0l0,0l0,0l0,0l0,0v0l0,0l0,0l0,0v0l0,0v0l0,0l0,0l0,0l0,0l0,0v0l0,0v0l0,0v0l0,0v0l0,0l0,0l0,0l0,0L35.4,42.8
							L35.4,42.8L35.4,42.8L35.4,42.8L35.4,42.8L35.4,42.8L35.4,42.8L35.4,42.8L35.4,42.8L35.4,42.8L35.4,42.8L35.4,42.8L35.4,42.8
							L35.4,42.8L35.4,42.8L35.4,42.8L35.4,42.8L35.4,42.8L35.4,42.8L35.4,42.8L35.4,42.8L35.4,42.8L35.4,42.8z M39.1,41.8
							L39.1,41.8L39.1,41.8L39.1,41.8L39.1,41.8L39.1,41.8L39.1,41.8L39.1,41.8L39.1,41.8L39.1,41.8L39.1,41.8L39.1,41.8L39.1,41.8
							L39.1,41.8L39.1,41.8L39.1,41.8L39.1,41.8L39.1,41.8L39.1,41.8L39.1,41.8L39.1,41.8L39.1,41.8L39.1,41.8L39.1,41.8L39.1,41.8
							L39.1,41.8L39.1,41.8L39.1,41.8L39.1,41.8L39.1,41.8L39.1,41.8L39.1,41.8L39.1,41.8L39.1,41.8L39.1,41.8L39.1,41.8L39.1,41.8
							L39.1,41.8L39.1,41.8L39.1,41.8L39.1,41.8L39.1,41.8L39.1,41.8L39.1,41.8L39.1,41.8L39.1,41.8L39.1,41.8L39.1,41.8L39.1,41.8
							L39.1,41.8L39.1,41.8L39.1,41.8L39.1,41.8L39.1,41.8L39.1,41.8L39.1,41.8L39.1,41.8L39.1,41.8L39.1,41.8L39.1,41.8L39.1,41.8
							L39.1,41.8L39.1,41.8L39.1,41.8L39.1,41.8L39.1,41.8L39.1,41.8L39.1,41.8L39.1,41.8L39.1,41.8L39.1,41.8L39.1,41.8L39.1,41.8
							L39.1,41.8L39.1,41.8L39.1,41.8L39.1,41.8L39.1,41.8C39,41.8,39,41.8,39.1,41.8L39.1,41.8L39.1,41.8L39.1,41.8
							C39,41.8,39,41.8,39.1,41.8L39.1,41.8L39.1,41.8L39.1,41.8L39.1,41.8L39.1,41.8C39,41.8,39,41.8,39.1,41.8L39.1,41.8
							C39,41.8,39,41.8,39.1,41.8l-3.6,0.9l0,0l0,0h0l0,0h0l0,0v0l0,0l0,0l0,0l0,0l0,0v0l0,0l0,0l0,0l0,0l0,0l0,0l0,0l0,0l0,0v0l0,0
							v0l0,0v0l0,0v0l0,0v0l0,0l0,0l0,0l0,0l0,0l0,0l0,0v0l0,0l0,0l0,0v0l0,0h0l0,0l0,0v0l0,0l0,0v0l0,0h0l0,0v0l0,0l0,0l0,0l0,0v0
							l0,0l0,0l0,0l0,0l0,0l0,0l0,0l0,0l0,0l0,0l0,0l0,0l0,0l0,0l0,0v0l0,0l0,0l0,0l0,0l0,0v0l0,0l0,0l0,0v0l0,0l0,0l0,0L39.1,41.8
							L39.1,41.8z M35.5,43.3c0.1,0,0.2-0.1,0.2-0.1l3.5-0.9l0,0c0,0-0.1-0.1-0.1-0.1l-3.5,0.9c-0.1,0-0.2,0.1-0.4,0.1
							C35.3,43.3,35.4,43.3,35.5,43.3L35.5,43.3z M35.6,43.8c0.1,0,0.2-0.1,0.2-0.1l3.5-0.9l0,0c0,0-0.1-0.1-0.1-0.1l-3.5,0.9
							c-0.1,0-0.3,0.1-0.4,0.1C35.5,43.8,35.5,43.8,35.6,43.8L35.6,43.8z M35.7,44.3c0.1,0,0.2-0.1,0.2-0.1l3.5-0.9l0,0
							c0,0-0.1-0.1-0.1-0.1l-3.5,0.9c-0.1,0-0.3,0.1-0.4,0.1C35.6,44.3,35.7,44.3,35.7,44.3L35.7,44.3z M35.9,44.8
							c0.1,0,0.2-0.1,0.2-0.1l3.5-0.9l0,0c0,0-0.1-0.1-0.1-0.1L36,44.7c-0.1,0-0.3,0.1-0.4,0.1C35.7,44.8,35.8,44.8,35.9,44.8
							L35.9,44.8z M36,45.3c0.1,0,0.2-0.1,0.2-0.1l3.5-0.9l0,0c0,0-0.1-0.1-0.1-0.1l-3.5,0.9c-0.1,0-0.3,0.1-0.4,0.1
							C35.9,45.3,35.9,45.3,36,45.3L36,45.3z M36.1,45.8c0.1,0,0.2-0.1,0.2-0.1l3.5-0.9l0,0c0,0-0.1-0.1-0.1-0.1l-3.5,0.9
							c-0.1,0-0.3,0.1-0.4,0.1l0,0l0,0l0,0l0,0l0,0L36.1,45.8L36.1,45.8L36.1,45.8L36.1,45.8L36.1,45.8L36.1,45.8z M36.3,46.3
							c0.1,0,0.2-0.1,0.2-0.1l3.5-0.9l0,0c0,0-0.1-0.1-0.1-0.1l-3.5,0.9c-0.1,0-0.3,0.1-0.4,0.1C36.1,46.3,36.2,46.3,36.3,46.3
							L36.3,46.3z M36.4,46.8c0.1,0,0.2-0.1,0.2-0.1l3.5-0.9l0,0c0,0-0.1-0.1-0.1-0.1l-3.5,0.9c-0.1,0-0.3,0.1-0.4,0.1
							C36.2,46.8,36.3,46.8,36.4,46.8L36.4,46.8z M36.5,47.3c0.1,0,0.2-0.1,0.2-0.1l3.5-0.9l0,0c0,0-0.1-0.1-0.1-0.1l-3.5,0.9
							c-0.1,0-0.3,0.1-0.4,0.1C36.4,47.3,36.5,47.3,36.5,47.3L36.5,47.3z M36.7,47.8c0.1,0,0.2-0.1,0.2-0.1l3.5-0.9l0,0
							c0,0-0.1-0.1-0.1-0.1l-3.5,0.9c-0.1,0-0.3,0.1-0.4,0.1C36.5,47.8,36.6,47.8,36.7,47.8L36.7,47.8z M36.8,48.3
							c0.1,0,0.2-0.1,0.2-0.1l3.5-0.9l0,0c0,0-0.1-0.1-0.1-0.1L37,48.2c-0.1,0-0.3,0.1-0.4,0.1C36.6,48.3,36.7,48.3,36.8,48.3
							L36.8,48.3z M36.9,48.8c0.1,0,0.2-0.1,0.2-0.1l3.5-0.9l0,0c0,0-0.1-0.1-0.1-0.1l-3.5,0.9c-0.1,0-0.3,0.1-0.4,0.1
							C36.8,48.8,36.8,48.8,36.9,48.8L36.9,48.8z M37,49.3c0.1,0,0.2-0.1,0.2-0.1l3.5-0.9l0,0c0,0-0.1-0.1-0.1-0.1l-3.5,0.9
							c-0.1,0-0.3,0.1-0.4,0.1C36.9,49.3,37,49.3,37,49.3L37,49.3z M37.2,49.8c0.1,0,0.2-0.1,0.2-0.1l3.5-0.9l0,0
							c0,0-0.1-0.1-0.1-0.1l-3.5,0.9c-0.1,0-0.3,0.1-0.4,0.1C37,49.8,37.1,49.8,37.2,49.8L37.2,49.8z M37.3,50.3
							c0.1,0,0.2-0.1,0.2-0.1l3.5-0.9l0,0c0,0-0.1-0.1-0.1-0.1l-3.5,0.9c-0.1,0-0.3,0.1-0.4,0.1C37.2,50.3,37.2,50.3,37.3,50.3
							L37.3,50.3z M37.4,50.8c0.1,0,0.2-0.1,0.2-0.1l3.5-0.9l0,0c0,0-0.1-0.1-0.1-0.1l-3.5,0.9c-0.1,0-0.3,0.1-0.4,0.1
							C37.3,50.8,37.4,50.8,37.4,50.8L37.4,50.8z M37.6,51.3c0.1,0,0.2-0.1,0.2-0.1l3.5-0.9l0,0c0,0-0.1-0.1-0.1-0.1l-3.5,0.9
							c-0.1,0-0.3,0.1-0.4,0.1C37.4,51.3,37.5,51.3,37.6,51.3L37.6,51.3z M37.7,51.8c0.1,0,0.2-0.1,0.2-0.1l3.5-0.9l0,0
							c0,0-0.1-0.1-0.1-0.1l-3.5,0.9c-0.1,0-0.3,0.1-0.4,0.1C37.6,51.8,37.6,51.8,37.7,51.8L37.7,51.8z M37.8,52.2
							c0.1,0,0.2-0.1,0.2-0.1l3.5-0.9l0,0c0,0-0.1-0.1-0.1-0.1L38,52.1c-0.1,0-0.3,0.1-0.4,0.1C37.7,52.3,37.8,52.3,37.8,52.2
							L37.8,52.2z M38,52.7c0.1,0,0.2-0.1,0.2-0.1l3.5-0.9l0,0c0,0-0.1-0.1-0.1-0.1l-3.5,0.9c-0.1,0-0.3,0.1-0.4,0.1
							C37.8,52.8,37.9,52.8,38,52.7L38,52.7z M38.1,53.2c0.1,0,0.2-0.1,0.2-0.1l3.5-0.9l0,0c0,0-0.1-0.1-0.1-0.1l-3.5,0.9
							c-0.1,0-0.3,0.1-0.4,0.1C37.9,53.3,38,53.3,38.1,53.2L38.1,53.2z M38.2,53.7c0.1,0,0.2-0.1,0.2-0.1l3.5-0.9l0,0
							c0,0-0.1-0.1-0.1-0.1l-3.5,0.9c-0.1,0-0.3,0.1-0.4,0.1C38.1,53.8,38.1,53.7,38.2,53.7L38.2,53.7z M38.4,54.2
							c0.1,0,0.2-0.1,0.2-0.1l3.5-0.9l0,0c0,0-0.1-0.1-0.1-0.1l-3.5,0.9c-0.1,0-0.3,0.1-0.4,0.1C38.2,54.3,38.3,54.2,38.4,54.2
							L38.4,54.2z M38.5,54.7c0.1,0,0.2-0.1,0.2-0.1l3.5-0.9l0,0c0,0-0.1-0.1-0.1-0.1l-3.5,0.9c-0.1,0-0.3,0.1-0.4,0.1
							C38.3,54.7,38.4,54.7,38.5,54.7L38.5,54.7z M38.6,55.2c0.1,0,0.2-0.1,0.2-0.1l3.5-0.9l0,0c0,0-0.1-0.1-0.1-0.1l-3.5,0.9
							c-0.1,0-0.3,0.1-0.4,0.1C38.5,55.2,38.5,55.2,38.6,55.2L38.6,55.2z M38.7,55.7c0.1,0,0.2-0.1,0.2-0.1l3.5-0.9l0,0
							c0,0-0.1-0.1-0.1-0.1l-3.5,0.9c-0.1,0-0.3,0.1-0.4,0.1C38.6,55.7,38.7,55.7,38.7,55.7L38.7,55.7z M38.9,56.2
							c0.1,0,0.2-0.1,0.2-0.1l3.5-0.9l0,0c0,0-0.1-0.1-0.1-0.1l-3.5,0.9c-0.1,0-0.3,0.1-0.4,0.1C38.7,56.2,38.8,56.2,38.9,56.2
							L38.9,56.2z M39,56.7c0.1,0,0.2-0.1,0.2-0.1l3.5-0.9l0,0c0,0-0.1-0.1-0.1-0.1l-3.5,0.9c-0.1,0-0.3,0.1-0.4,0.1
							C38.9,56.7,38.9,56.7,39,56.7L39,56.7z M39.1,57.2c0.1,0,0.2-0.1,0.2-0.1l3.5-0.9l0,0c0,0-0.1-0.1-0.1-0.1l-3.5,0.9
							c-0.1,0-0.3,0.1-0.4,0.1C39,57.2,39.1,57.2,39.1,57.2L39.1,57.2z M32.3,31.4c0.1,0,0.2-0.1,0.2-0.1l3.5-0.9l0,0
							c0,0-0.1-0.1-0.1-0.1l-3.5,0.9c-0.1,0-0.2,0.1-0.4,0.1l0,0C32.2,31.4,32.3,31.4,32.3,31.4L32.3,31.4z M32.5,31.9
							c0.1,0,0.2-0.1,0.2-0.1l3.5-0.9l0,0c0,0-0.1-0.1-0.1-0.1l-3.5,0.9c-0.1,0-0.2,0.1-0.4,0.1l0,0C32.3,31.9,32.4,31.9,32.5,31.9
							L32.5,31.9z M32.6,32.4c0.1,0,0.2-0.1,0.2-0.1l3.5-0.9l0,0c0,0-0.1-0.1-0.1-0.1l-3.5,0.9c-0.1,0-0.2,0.1-0.4,0.1l0,0
							C32.5,32.4,32.5,32.4,32.6,32.4L32.6,32.4z M32.7,32.9c0.1,0,0.2-0.1,0.2-0.1l3.5-0.9l0,0c0,0-0.1-0.1-0.1-0.1l-3.5,0.9
							c-0.1,0-0.2,0.1-0.4,0.1l0,0C32.6,32.9,32.7,32.9,32.7,32.9L32.7,32.9z M32.9,33.4c0.1,0,0.2-0.1,0.2-0.1l3.5-0.9l0,0
							c0,0-0.1-0.1-0.1-0.1L33,33.3c-0.1,0-0.2,0.1-0.4,0.1l0,0C32.7,33.4,32.8,33.4,32.9,33.4L32.9,33.4z M33,33.9
							c0.1,0,0.2-0.1,0.2-0.1l3.5-0.9l0,0c0,0-0.1-0.1-0.1-0.1l-3.5,0.9c-0.1,0-0.2,0.1-0.4,0.1l0,0C32.9,33.9,32.9,33.9,33,33.9
							L33,33.9z M33.1,34.4c0.1,0,0.2-0.1,0.2-0.1l3.5-0.9l0,0c0,0-0.1-0.1-0.1-0.1l-3.5,0.9c-0.1,0-0.2,0.1-0.4,0.1l0,0
							C33,34.4,33.1,34.4,33.1,34.4L33.1,34.4z M33.3,34.9c0.1,0,0.2-0.1,0.2-0.1l3.5-0.9l0,0c0,0-0.1-0.1-0.1-0.1l-3.5,0.9
							c-0.1,0-0.2,0.1-0.4,0.1l0,0C33.1,34.9,33.2,34.9,33.3,34.9L33.3,34.9z M33.4,35.4c0.1,0,0.2-0.1,0.2-0.1l3.5-0.9l0,0
							c0,0-0.1-0.1-0.1-0.1l-3.5,0.9c-0.1,0-0.2,0.1-0.4,0.1l0,0C33.2,35.4,33.3,35.4,33.4,35.4L33.4,35.4z M33.5,35.9
							c0.1,0,0.2-0.1,0.2-0.1l3.5-0.9l0,0c0,0-0.1-0.1-0.1-0.1l-3.5,0.9c-0.1,0-0.2,0.1-0.4,0.1l0,0C33.4,35.9,33.4,35.9,33.5,35.9
							L33.5,35.9z M33.7,36.4c0.1,0,0.2-0.1,0.2-0.1l3.5-0.9l0,0c0,0-0.1-0.1-0.1-0.1l-3.5,0.9c-0.1,0-0.2,0.1-0.4,0.1l0,0
							C33.5,36.4,33.6,36.4,33.7,36.4L33.7,36.4z M33.8,36.9c0.1,0,0.2-0.1,0.2-0.1l3.5-0.9l0,0c0,0-0.1-0.1-0.1-0.1L34,36.8
							c-0.1,0-0.2,0.1-0.4,0.1l0,0C33.6,36.9,33.7,36.9,33.8,36.9L33.8,36.9z M33.9,37.4c0.1,0,0.2-0.1,0.2-0.1l3.5-0.9l0,0
							c0,0-0.1-0.1-0.1-0.1l-3.5,0.9c-0.1,0-0.2,0.1-0.4,0.1l0,0C33.8,37.4,33.8,37.4,33.9,37.4L33.9,37.4z M34,37.9
							c0.1,0,0.2-0.1,0.2-0.1l3.5-0.9l0,0c0,0-0.1-0.1-0.1-0.1l-3.5,0.9c-0.1,0-0.2,0.1-0.4,0.1l0,0C33.9,37.9,34,37.9,34,37.9
							L34,37.9z M34.2,38.4c0.1,0,0.2-0.1,0.2-0.1l3.5-0.9l0,0c0,0-0.1-0.1-0.1-0.1l-3.5,0.9c-0.1,0-0.2,0.1-0.4,0.1l0,0
							C34,38.4,34.1,38.4,34.2,38.4L34.2,38.4z M34.3,38.9c0.1,0,0.2-0.1,0.2-0.1l3.5-0.9l0,0c0,0-0.1-0.1-0.1-0.1l-3.5,0.9
							c-0.1,0-0.2,0.1-0.4,0.1l0,0C34.2,38.9,34.2,38.9,34.3,38.9L34.3,38.9z M34.4,39.4c0.1,0,0.2-0.1,0.2-0.1l3.5-0.9l0,0
							c0,0-0.1-0.1-0.1-0.1l-3.5,0.9c-0.1,0-0.2,0.1-0.4,0.1h0C34.3,39.4,34.4,39.4,34.4,39.4L34.4,39.4z M34.6,39.9
							c0.1,0,0.2-0.1,0.2-0.1l3.5-0.9l0,0c0,0-0.1-0.1-0.1-0.1l-3.5,0.9c-0.1,0-0.2,0.1-0.4,0.1l0,0C34.4,39.9,34.5,39.9,34.6,39.9
							L34.6,39.9z M34.7,40.4c0.1,0,0.2-0.1,0.2-0.1l3.5-0.9l0,0c0,0-0.1-0.1-0.1-0.1l-3.5,0.9c-0.1,0-0.2,0.1-0.4,0.1l0,0
							C34.5,40.4,34.6,40.4,34.7,40.4L34.7,40.4z M34.8,40.8c0.1,0,0.2-0.1,0.2-0.1l3.5-0.9l0,0c0,0-0.1-0.1-0.1-0.1L35,40.7
							c-0.1,0-0.2,0.1-0.4,0.1h0C34.7,40.9,34.8,40.9,34.8,40.8L34.8,40.8z M35,41.3c0.1,0,0.2-0.1,0.2-0.1l3.5-0.9l0,0
							c0,0-0.1-0.1-0.1-0.1l-3.5,0.9c-0.1,0-0.2,0.1-0.4,0.1l0,0C34.8,41.4,34.9,41.4,35,41.3L35,41.3z M35.1,41.8
							c0.1,0,0.2-0.1,0.2-0.1l3.5-0.9l0,0c0,0-0.1-0.1-0.1-0.1l-3.5,0.9c-0.1,0-0.2,0.1-0.4,0.1h0C34.9,41.9,35,41.9,35.1,41.8
							L35.1,41.8z M35.2,42.3c0.1,0,0.2-0.1,0.2-0.1l3.5-0.9l0,0c0,0-0.1-0.1-0.1-0.1l-3.5,0.9c-0.1,0-0.2,0.1-0.4,0.1
							C35.1,42.4,35.1,42.3,35.2,42.3L35.2,42.3z M39.3,58.2c0,0-0.1,0-0.1,0c0.1-0.1,0.3-0.1,0.4-0.1l3.5-0.9c0,0,0.1,0,0.1,0.1
							l0,0l-3.5,0.9C39.6,58.1,39.4,58.2,39.3,58.2z"/>
					</g>
					<g>
						<path class="st31" d="M43.6,56.9c0.1,0.4-0.2,0.4-0.4,0.5c0.2-0.1,0.2-0.2,0.1-0.4l-7-26.8c0-0.2-0.1-0.3-0.3-0.3
							c0.2-0.1,0.5-0.2,0.6,0.2C38.9,39,41.2,47.9,43.6,56.9L43.6,56.9z M31.9,31c0.1,0,0.4,0,0.5-0.1l3.5-0.9c0,0,0-0.1,0-0.1l0,0
							l-3.5,1C32.4,30.9,32.1,31,31.9,31C32,31,31.9,31,31.9,31L31.9,31z M35.8,45.9C35.8,45.9,35.8,45.9,35.8,45.9L35.8,45.9
							L35.8,45.9L35.8,45.9L35.8,45.9L35.8,45.9L35.8,45.9L35.8,45.9L35.8,45.9L35.8,45.9L35.8,45.9L35.8,45.9L35.8,45.9L35.8,45.9
							L35.8,45.9L35.8,45.9L35.8,45.9L35.8,45.9L35.8,45.9L35.8,45.9L35.8,45.9L35.8,45.9L35.8,45.9L35.8,45.9L35.8,45.9L35.8,45.9
							L35.8,45.9L35.8,45.9L35.8,45.9L35.8,45.9L35.8,45.9L35.8,45.9L35.8,45.9L35.8,45.9L35.8,45.9L35.8,45.9L35.8,45.9L35.8,45.9
							L35.8,45.9L35.8,45.9L35.8,45.9L35.8,45.9L35.8,45.9L35.8,45.9L35.8,45.9L35.8,45.9L35.8,45.9L35.8,45.9L35.8,45.9L35.8,45.9
							L35.8,45.9L35.8,45.9L35.8,45.9L35.8,45.9L35.8,45.9L35.8,45.9L35.8,45.9L35.8,45.9L35.8,45.9L35.8,45.9L35.8,45.9L35.8,45.9
							L35.8,45.9L35.8,45.9L35.8,45.9L35.8,45.9L35.8,45.9L35.8,45.9L35.8,45.9L35.8,45.9L35.8,45.9L35.8,45.9L35.8,45.9L35.8,45.9
							L35.8,45.9L35.8,45.9L35.8,45.9L35.8,45.9L35.8,45.9L35.8,45.9L35.8,45.9L35.8,45.9L35.8,45.9L35.8,45.9l0.1-0.1l0,0l0,0l0,0
							l0,0l0,0l0,0v0l0,0l0,0h0l0,0v0l0,0l0,0l0,0l0,0l0,0l0,0l0,0v0l0,0l0,0l0,0l0,0h0l0,0v0l0,0l0,0l0,0l0,0l0,0l0,0l0,0l0,0h0
							l0,0h0l0,0l0,0l0,0v0l0,0l0,0v0l0,0l0,0l0,0l0,0l0,0l0,0l0,0v0l0,0v0l0,0v0l0,0l0,0l0,0l0,0l0,0l0,0l0,0v0l0,0v0l0,0l0,0l0,0
							v0l0,0v0l0,0v0l0,0l0,0l0,0l0,0h0l0,0l0,0l0,0h0l0,0v0l0,0v0l0,0v0l0,0v0l0,0l0,0l0,0v0l0,0v0l0,0l0,0l0,0l3.1-0.8L35.8,45.9
							L35.8,45.9z M39.9,44.9l-4,1h0l0,0v0l0,0h0l0,0v0l0,0h0l0,0h0c0,0,0,0,0,0h0l0,0v0l0,0v0l0,0l0,0l0,0l0,0l0,0h0l0,0l0,0l0,0v0
							l0,0v0l0,0h0l0,0v0l0,0l0,0l0,0l0,0l0,0v0l0,0v0l0,0h0l0,0l0,0l0,0h0l0,0h0l0,0v0l0,0h0l0,0l0,0l0,0l0,0l0,0l0,0v0l0,0l0,0
							l0,0h0l0,0l0,0l0,0l0,0l0,0h0l0,0l0,0l0,0h0l0,0h0l0,0l0,0l0,0l0,0l0,0l0,0l0,0l0,0l0,0h0l0,0l0,0l0,0l0,0l0,0v0l0,0l0,0l0,0
							l0,0l0,0h0l0,0v0l0,0v0l0,0l0,0l0,0v0l0,0l0,0l0,0v0l0,0v0l0,0v0l3.5-0.9C39.8,45,39.8,45,39.9,44.9L39.9,44.9
							C39.8,45,39.8,45,39.9,44.9L39.9,44.9L39.9,44.9L39.9,44.9L39.9,44.9L39.9,44.9C39.9,45,39.9,45,39.9,44.9L39.9,44.9
							L39.9,44.9L39.9,44.9C39.9,45,39.9,45,39.9,44.9L39.9,44.9L39.9,44.9L39.9,44.9L39.9,44.9L39.9,44.9L39.9,44.9L39.9,44.9
							L39.9,44.9L39.9,44.9L39.9,44.9L39.9,44.9L39.9,44.9L39.9,44.9L39.9,44.9L39.9,44.9L39.9,44.9L39.9,44.9L39.9,44.9L39.9,44.9
							L39.9,44.9L39.9,44.9L39.9,44.9L39.9,44.9L39.9,44.9L39.9,44.9L39.9,44.9L39.9,44.9L39.9,44.9L39.9,44.9L39.9,44.9L39.9,44.9
							L39.9,44.9L39.9,44.9L39.9,44.9L39.9,44.9L39.9,44.9L39.9,44.9L39.9,44.9L39.9,44.9L39.9,44.9L39.9,44.9L39.9,44.9L39.9,44.9
							L39.9,44.9L39.9,44.9L39.9,44.9L39.9,44.9L39.9,44.9L39.9,44.9L39.9,44.9L39.9,44.9L39.9,44.9L39.9,44.9L39.9,44.9L39.9,44.9
							L39.9,44.9L39.9,44.9L39.9,44.9L39.9,44.9L39.9,44.9L39.9,44.9L39.9,44.9L39.9,44.9L39.9,44.9L39.9,44.9L39.9,44.9L39.9,44.9
							L39.9,44.9L39.9,44.9L39.9,44.9L39.9,44.9L39.9,44.9L39.9,44.9L39.9,44.9L39.9,44.9L39.9,44.9L39.9,44.9L39.9,44.9z
							 M35.7,45.4c0.1,0,0.4,0,0.5-0.1l3.5-0.9c0,0,0-0.1,0.1-0.1l0,0l-3.5,0.9C36.2,45.3,35.9,45.4,35.7,45.4
							C35.8,45.4,35.7,45.4,35.7,45.4L35.7,45.4z M35.6,44.9c0.1,0,0.4,0,0.5-0.1l3.5-0.9c0,0,0-0.1,0.1-0.1l0,0l-3.5,0.9
							C36.1,44.8,35.8,44.9,35.6,44.9C35.6,44.9,35.6,44.9,35.6,44.9L35.6,44.9z M35.4,44.4c0.1,0,0.4,0,0.5-0.1l3.5-0.9
							c0,0,0-0.1,0.1-0.1l0,0L36,44.3C35.9,44.3,35.7,44.4,35.4,44.4C35.5,44.4,35.5,44.4,35.4,44.4L35.4,44.4z M35.3,43.9
							c0.1,0,0.4,0,0.5-0.1l3.5-0.9c0,0,0-0.1,0.1-0.1l0,0l-3.5,0.9C35.8,43.8,35.5,43.9,35.3,43.9C35.4,43.9,35.3,43.9,35.3,43.9
							L35.3,43.9z M35.2,43.4c0.1,0,0.4,0,0.5-0.1l3.5-0.9c0,0,0-0.1,0.1-0.1l0,0l-3.5,0.9C35.7,43.3,35.4,43.4,35.2,43.4
							C35.2,43.4,35.2,43.4,35.2,43.4L35.2,43.4z M35.1,42.9c0.1,0,0.4,0,0.5-0.1l3.5-0.9c0,0,0-0.1,0.1-0.1l0,0l-3.5,0.9
							C35.5,42.8,35.3,42.9,35.1,42.9C35.1,42.9,35.1,42.9,35.1,42.9L35.1,42.9z M34.9,42.5c0.1,0,0.4,0,0.5-0.1l3.5-0.9
							c0,0,0-0.1,0.1-0.1l0,0l-3.5,0.9C35.4,42.3,35.1,42.4,34.9,42.5C35,42.4,34.9,42.4,34.9,42.5L34.9,42.5z M34.8,42
							c0.1,0,0.4,0,0.5-0.1l3.5-0.9c0,0,0-0.1,0.1-0.1l0,0l-3.5,0.9C35.3,41.8,35,41.9,34.8,42C34.8,41.9,34.8,41.9,34.8,42L34.8,42
							z M34.7,41.5c0.1,0,0.4,0,0.5-0.1l3.5-0.9c0,0,0-0.1,0.1-0.1l0,0l-3.5,0.9C35.2,41.3,34.9,41.4,34.7,41.5
							C34.7,41.4,34.7,41.4,34.7,41.5L34.7,41.5z M34.5,41c0.1,0,0.4,0,0.5-0.1l3.5-0.9c0,0,0-0.1,0.1-0.1l0,0l-3.5,0.9
							C35,40.8,34.8,40.9,34.5,41C34.6,40.9,34.6,40.9,34.5,41L34.5,41z M34.4,40.5c0.1,0,0.4,0,0.5-0.1l3.5-0.9c0,0,0-0.1,0.1-0.1
							l0,0L35,40.3C34.9,40.4,34.6,40.4,34.4,40.5C34.5,40.4,34.4,40.4,34.4,40.5L34.4,40.5z M34.3,40c0.1,0,0.4,0,0.5-0.1l3.5-0.9
							c0,0,0-0.1,0.1-0.1l0,0l-3.5,0.9C34.8,39.9,34.5,39.9,34.3,40C34.3,39.9,34.3,40,34.3,40L34.3,40z M34.1,39.5
							c0.1,0,0.4,0,0.5-0.1l3.5-0.9c0,0,0-0.1,0.1-0.1l0,0l-3.5,0.9C34.6,39.4,34.4,39.4,34.1,39.5C34.2,39.4,34.2,39.5,34.1,39.5
							L34.1,39.5z M34,39c0.1,0,0.4,0,0.5-0.1L38,38c0,0,0-0.1,0.1-0.1l0,0l-3.5,0.9C34.5,38.9,34.2,38.9,34,39
							C34.1,38.9,34,39,34,39L34,39z M33.9,38.5c0.1,0,0.4,0,0.5-0.1l3.5-0.9c0,0,0-0.1,0.1-0.1l0,0l-3.5,0.9
							C34.4,38.4,34.1,38.4,33.9,38.5C33.9,38.4,33.9,38.5,33.9,38.5L33.9,38.5z M33.8,38c0.1,0,0.4,0,0.5-0.1l3.5-0.9
							c0,0,0-0.1,0.1-0.1l0,0l-3.5,0.9C34.2,37.9,34,37.9,33.8,38C33.8,37.9,33.8,38,33.8,38L33.8,38z M33.6,37.5
							c0.1,0,0.4,0,0.5-0.1l3.5-0.9c0,0,0-0.1,0.1-0.1l0,0l-3.5,0.9C34.1,37.4,33.8,37.4,33.6,37.5C33.7,37.5,33.6,37.5,33.6,37.5
							L33.6,37.5z M33.5,37c0.1,0,0.4,0,0.5-0.1l3.5-0.9c0,0,0-0.1,0.1-0.1l0,0L34,36.9C34,36.9,33.7,37,33.5,37
							C33.5,37,33.5,37,33.5,37L33.5,37z M33.4,36.5c0.1,0,0.4,0,0.5-0.1l3.5-0.9c0,0,0-0.1,0.1-0.1l0,0l-3.5,0.9
							C33.9,36.4,33.6,36.5,33.4,36.5C33.4,36.5,33.4,36.5,33.4,36.5L33.4,36.5z M33.2,36c0.1,0,0.4,0,0.5-0.1l3.5-0.9
							c0,0,0-0.1,0.1-0.1l0,0l-3.5,0.9C33.7,35.9,33.4,36,33.2,36C33.3,36,33.2,36,33.2,36L33.2,36z M33.1,35.5c0.1,0,0.4,0,0.5-0.1
							l3.5-0.9c0,0,0-0.1,0.1-0.1l0,0l-3.5,0.9C33.6,35.4,33.3,35.5,33.1,35.5C33.1,35.5,33.1,35.5,33.1,35.5L33.1,35.5z M33,35
							c0.1,0,0.4,0,0.5-0.1l3.5-0.9c0,0,0-0.1,0.1-0.1l0,0l-3.5,0.9C33.5,34.9,33.2,35,33,35C33,35,33,35,33,35L33,35z M32.8,34.5
							c0.1,0,0.4,0,0.5-0.1l3.5-0.9c0,0,0-0.1,0.1-0.1l0,0l-3.5,0.9C33.3,34.4,33.1,34.5,32.8,34.5C32.9,34.5,32.9,34.5,32.8,34.5
							L32.8,34.5z M32.7,34c0.1,0,0.4,0,0.5-0.1l3.5-0.9c0,0,0-0.1,0.1-0.1l0,0l-3.5,0.9C33.2,33.9,32.9,34,32.7,34
							C32.8,34,32.7,34,32.7,34L32.7,34z M32.6,33.5c0.1,0,0.4,0,0.5-0.1l3.5-0.9c0,0,0-0.1,0.1-0.1l0,0l-3.5,0.9
							C33.1,33.4,32.8,33.5,32.6,33.5C32.6,33.5,32.6,33.5,32.6,33.5L32.6,33.5z M32.4,33c0.1,0,0.4,0,0.5-0.1l3.5-0.9
							c0,0,0-0.1,0.1-0.1l0,0L33,32.9C32.9,32.9,32.7,33,32.4,33C32.5,33,32.5,33,32.4,33L32.4,33z M32.3,32.5c0.1,0,0.4,0,0.5-0.1
							l3.5-0.9c0,0,0-0.1,0.1-0.1l0,0l-3.5,0.9C32.8,32.4,32.5,32.5,32.3,32.5C32.4,32.5,32.3,32.5,32.3,32.5L32.3,32.5z M32.2,32
							c0.1,0,0.4,0,0.5-0.1l3.5-0.9c0,0,0-0.1,0.1-0.1l0,0l-3.5,0.9C32.7,31.9,32.4,32,32.2,32C32.2,32,32.2,32,32.2,32L32.2,32z
							 M32.1,31.5c0.1,0,0.4,0,0.5-0.1l3.5-0.9c0,0,0-0.1,0.1-0.1l0,0l-3.5,0.9C32.5,31.4,32.3,31.5,32.1,31.5
							C32.1,31.5,32.1,31.5,32.1,31.5L32.1,31.5z M39,57.8c0.1,0,0.4,0,0.5-0.1l3.5-0.9c0,0,0-0.1,0.1-0.1l0,0l-3.5,0.9
							C39.5,57.7,39.2,57.8,39,57.8C39,57.8,39,57.8,39,57.8L39,57.8z M38.8,57.3c0.1,0,0.4,0,0.5-0.1l3.5-0.9c0,0,0-0.1,0.1-0.1
							l0,0l-3.5,0.9C39.3,57.2,39.1,57.3,38.8,57.3C38.9,57.3,38.9,57.3,38.8,57.3L38.8,57.3z M38.7,56.8c0.1,0,0.4,0,0.5-0.1
							l3.5-0.9c0,0,0-0.1,0.1-0.1l0,0l-3.5,0.9C39.2,56.7,38.9,56.8,38.7,56.8C38.8,56.8,38.7,56.8,38.7,56.8L38.7,56.8z M38.6,56.3
							c0.1,0,0.4,0,0.5-0.1l3.5-0.9c0,0,0-0.1,0.1-0.1l0,0l-3.5,0.9C39.1,56.2,38.8,56.3,38.6,56.3C38.6,56.3,38.6,56.3,38.6,56.3
							L38.6,56.3z M38.5,55.8c0.1,0,0.4,0,0.5-0.1l3.5-0.9c0,0,0-0.1,0.1-0.1l0,0L39,55.7C38.9,55.7,38.7,55.8,38.5,55.8
							C38.5,55.8,38.5,55.8,38.5,55.8L38.5,55.8z M38.3,55.3c0.1,0,0.4,0,0.5-0.1l3.5-0.9c0,0,0-0.1,0.1-0.1l0,0l-3.5,0.9
							C38.8,55.2,38.5,55.3,38.3,55.3C38.4,55.3,38.3,55.3,38.3,55.3L38.3,55.3z M38.2,54.8c0.1,0,0.4,0,0.5-0.1l3.5-0.9
							c0,0,0-0.1,0.1-0.1l0,0l-3.5,0.9C38.7,54.7,38.4,54.8,38.2,54.8C38.2,54.8,38.2,54.8,38.2,54.8L38.2,54.8z M38.1,54.3
							c0.1,0,0.4,0,0.5-0.1l3.5-0.9c0,0,0-0.1,0.1-0.1l0,0l-3.5,0.9C38.5,54.2,38.3,54.3,38.1,54.3C38.1,54.3,38.1,54.3,38.1,54.3
							L38.1,54.3z M37.9,53.9c0.1,0,0.4,0,0.5-0.1l3.5-0.9c0,0,0-0.1,0.1-0.1l0,0l-3.5,0.9C38.4,53.7,38.1,53.8,37.9,53.9
							C38,53.8,37.9,53.8,37.9,53.9L37.9,53.9z M37.8,53.4c0.1,0,0.4,0,0.5-0.1l3.5-0.9c0,0,0-0.1,0.1-0.1l0,0l-3.5,0.9
							C38.3,53.2,38,53.3,37.8,53.4C37.8,53.3,37.8,53.3,37.8,53.4L37.8,53.4z M37.7,52.9c0.1,0,0.4,0,0.5-0.1l3.5-0.9
							c0,0,0-0.1,0.1-0.1l0,0l-3.5,0.9C38.2,52.7,37.9,52.8,37.7,52.9C37.7,52.8,37.7,52.8,37.7,52.9L37.7,52.9z M37.5,52.4
							c0.1,0,0.4,0,0.5-0.1l3.5-0.9c0,0,0-0.1,0.1-0.1l0,0l-3.5,0.9C38,52.3,37.8,52.3,37.5,52.4C37.6,52.3,37.6,52.3,37.5,52.4
							L37.5,52.4z M37.4,51.9c0.1,0,0.4,0,0.5-0.1l3.5-0.9c0,0,0-0.1,0.1-0.1l0,0L38,51.7C37.9,51.8,37.6,51.8,37.4,51.9
							C37.5,51.8,37.4,51.8,37.4,51.9L37.4,51.9z M37.3,51.4c0.1,0,0.4,0,0.5-0.1l3.5-0.9c0,0,0-0.1,0.1-0.1l0,0l-3.5,0.9
							C37.8,51.3,37.5,51.3,37.3,51.4C37.3,51.3,37.3,51.4,37.3,51.4L37.3,51.4z M37.1,50.9c0.1,0,0.4,0,0.5-0.1l3.5-0.9
							c0,0,0-0.1,0.1-0.1l0,0l-3.5,0.9C37.6,50.8,37.4,50.8,37.1,50.9C37.2,50.8,37.2,50.9,37.1,50.9L37.1,50.9z M37,50.4
							c0.1,0,0.4,0,0.5-0.1l3.5-0.9c0,0,0-0.1,0.1-0.1l0,0l-3.5,0.9C37.5,50.3,37.2,50.3,37,50.4C37.1,50.3,37,50.4,37,50.4L37,50.4
							z M36.9,49.9c0.1,0,0.4,0,0.5-0.1l3.5-0.9c0,0,0-0.1,0.1-0.1l0,0l-3.5,0.9C37.4,49.8,37.1,49.8,36.9,49.9
							C36.9,49.8,36.9,49.9,36.9,49.9L36.9,49.9z M36.8,49.4c0.1,0,0.4,0,0.5-0.1l3.5-0.9c0,0,0-0.1,0.1-0.1l0,0l-3.5,0.9
							C37.2,49.3,37,49.3,36.8,49.4C36.8,49.3,36.8,49.4,36.8,49.4L36.8,49.4z M36.6,48.9c0.1,0,0.4,0,0.5-0.1l3.5-0.9
							c0,0,0-0.1,0.1-0.1l0,0l-3.5,0.9C37.1,48.8,36.8,48.8,36.6,48.9C36.7,48.9,36.6,48.9,36.6,48.9L36.6,48.9z M36.5,48.4
							c0.1,0,0.4,0,0.5-0.1l3.5-0.9c0,0,0-0.1,0.1-0.1l0,0L37,48.3C37,48.3,36.7,48.4,36.5,48.4C36.5,48.4,36.5,48.4,36.5,48.4
							L36.5,48.4z M36.4,47.9c0.1,0,0.4,0,0.5-0.1l3.5-0.9c0,0,0-0.1,0.1-0.1l0,0l-3.5,0.9C36.9,47.8,36.6,47.9,36.4,47.9
							C36.4,47.9,36.4,47.9,36.4,47.9L36.4,47.9z M36.2,47.4c0.1,0,0.4,0,0.5-0.1l3.5-0.9c0,0,0-0.1,0.1-0.1l0,0l-3.5,0.9
							C36.7,47.3,36.4,47.4,36.2,47.4C36.3,47.4,36.2,47.4,36.2,47.4L36.2,47.4z M36.1,46.9c0.1,0,0.4,0,0.5-0.1l3.5-0.9
							c0,0,0-0.1,0.1-0.1l0,0l-3.5,0.9C36.6,46.8,36.3,46.9,36.1,46.9C36.1,46.9,36.1,46.9,36.1,46.9L36.1,46.9z M36,46.4
							c0.1,0,0.4,0,0.5-0.1l3.5-0.9c0,0,0-0.1,0.1-0.1l0,0l-3.5,0.9C36.5,46.3,36.2,46.4,36,46.4C36,46.4,36,46.4,36,46.4L36,46.4z
							 M39.1,58.3c0,0,0.1,0,0.1,0c0.2,0,0.4,0,0.6,0l3.2-0.5c0.6-0.1,1.3-0.3,1.2-1c0,0.4-0.4,0.6-1.3,0.8l-3.2,0.7
							C39.6,58.3,39.4,58.3,39.1,58.3C39.2,58.3,39.2,58.3,39.1,58.3C39.1,58.3,39.1,58.3,39.1,58.3z"/>
					</g>
				</g>
				<g>
					<g>
						<path class="st2" d="M43,29.1l0.3,0.2c0.3-0.3,1.3-1.3,1.3-1.8c-0.3-0.1-0.6-0.1-0.9-0.2C43.5,27.6,43,28.4,43,29.1z"/>
						<path class="st31" d="M43.6,27.7c-0.1,0.3-0.2,0.6-0.2,0.9L43.2,29l0.4-0.5C43.5,28.3,43.5,27.9,43.6,27.7z"/>
						<path class="st42" d="M53.4,28l-9.6,0.5l-0.4,0.3l-0.3,0.3c-0.1,0.1-0.1,0.2-0.1,0.4l0.3,1.2l0.2,0.2l8-1.6l1.5-0.9L53.4,28z"
							/>
						<g>
							<path class="st31" d="M53.6,26.5L44,27.1c-0.4,0-0.3,1.5-0.1,1.5l9.6-0.5C53.6,28,54,26.5,53.6,26.5z"/>
							<path class="st13" d="M53.3,28l-0.2,0l0.2-1.6c0-0.1,0.1-0.1,0.1,0L53.3,28L53.3,28z M44.3,28.5l-0.2,0l0.2-1.6
								c0-0.1,0.1-0.1,0.1,0L44.3,28.5L44.3,28.5z M44.6,28.5l0.1-1.5c0-0.1-0.1-0.1-0.1,0l-0.2,1.6L44.6,28.5L44.6,28.5z
								 M44.9,28.5l-0.2,0l0.2-1.6c0-0.1,0.1-0.1,0.1,0L44.9,28.5L44.9,28.5z M45.2,28.5l0.1-1.5c0-0.1-0.1-0.1-0.1,0l-0.2,1.6
								L45.2,28.5L45.2,28.5z M45.5,28.5l-0.2,0l0.2-1.6c0-0.1,0.1-0.1,0.1,0L45.5,28.5L45.5,28.5z M45.7,28.5l0.1-1.5
								c0-0.1-0.1-0.1-0.1,0l-0.2,1.6L45.7,28.5L45.7,28.5z M46,28.4l-0.2,0l0.2-1.6c0-0.1,0.1-0.1,0.1,0L46,28.4L46,28.4z
								 M46.3,28.4l0.1-1.5c0-0.1-0.1-0.1-0.1,0l-0.2,1.6L46.3,28.4L46.3,28.4z M46.6,28.4l-0.2,0l0.2-1.6c0-0.1,0.1-0.1,0.1,0
								L46.6,28.4L46.6,28.4z M46.9,28.4l0.1-1.5c0-0.1-0.1-0.1-0.1,0l-0.2,1.6L46.9,28.4L46.9,28.4z M47.2,28.4l-0.2,0l0.2-1.6
								c0-0.1,0.1-0.1,0.1,0L47.2,28.4L47.2,28.4z M47.5,28.4l0.1-1.5c0-0.1-0.1-0.1-0.1,0l-0.2,1.6L47.5,28.4L47.5,28.4z
								 M47.8,28.3l-0.2,0l0.2-1.6c0-0.1,0.1-0.1,0.1,0L47.8,28.3L47.8,28.3z M48.1,28.3l0.1-1.5c0-0.1-0.1-0.1-0.1,0l-0.2,1.6
								L48.1,28.3L48.1,28.3z M48.4,28.3l-0.2,0l0.2-1.6c0-0.1,0.1-0.1,0.1,0L48.4,28.3L48.4,28.3z M48.7,28.3l0.1-1.5
								c0-0.1-0.1-0.1-0.1,0l-0.2,1.6L48.7,28.3L48.7,28.3z M49,28.3l-0.2,0l0.2-1.6c0-0.1,0.1-0.1,0.1,0L49,28.3L49,28.3z
								 M49.3,28.3l0.1-1.5c0-0.1-0.1-0.1-0.1,0L49,28.3L49.3,28.3L49.3,28.3z M49.5,28.2l-0.2,0l0.2-1.6c0-0.1,0.1-0.1,0.1,0
								L49.5,28.2L49.5,28.2z M49.8,28.2l0.1-1.5c0-0.1-0.1-0.1-0.1,0l-0.2,1.6L49.8,28.2L49.8,28.2z M50.1,28.2l-0.2,0l0.2-1.6
								c0-0.1,0.1-0.1,0.1,0L50.1,28.2L50.1,28.2z M50.4,28.2l0.1-1.5c0-0.1-0.1-0.1-0.1,0l-0.2,1.6L50.4,28.2L50.4,28.2z
								 M50.7,28.2l-0.2,0l0.2-1.6c0-0.1,0.1-0.1,0.1,0L50.7,28.2L50.7,28.2z M51,28.2l0.1-1.5c0-0.1-0.1-0.1-0.1,0l-0.2,1.6
								L51,28.2L51,28.2z M51.3,28.1l-0.2,0l0.2-1.6c0-0.1,0.1-0.1,0.1,0L51.3,28.1L51.3,28.1z M51.6,28.1l0.1-1.5
								c0-0.1-0.1-0.1-0.1,0l-0.2,1.6L51.6,28.1L51.6,28.1z M51.9,28.1l-0.2,0l0.2-1.6c0-0.1,0.1-0.1,0.1,0L51.9,28.1L51.9,28.1z
								 M52.2,28.1l0.1-1.5c0-0.1-0.1-0.1-0.1,0L52,28.1L52.2,28.1L52.2,28.1z M52.5,28.1l-0.2,0l0.2-1.6c0-0.1,0.1-0.1,0.1,0
								L52.5,28.1L52.5,28.1z M52.8,28.1l0.1-1.5c0-0.1-0.1-0.1-0.1,0l-0.2,1.6L52.8,28.1L52.8,28.1z M53,28l0.1-1.5
								c0-0.1-0.1-0.1-0.1,0l-0.2,1.6L53,28z"/>
							<path class="st3" d="M53.3,28L53.3,28l0.1-1.5L53.3,28L53.3,28z M44.2,28.5L44.2,28.5l0.1-1.5L44.2,28.5L44.2,28.5z
								 M44.5,28.5L44.5,28.5l0.1-1.5L44.5,28.5L44.5,28.5z M44.8,28.5L44.8,28.5L45,27L44.8,28.5L44.8,28.5z M45.1,28.5L45.1,28.5
								l0.1-1.5L45.1,28.5L45.1,28.5z M45.4,28.4L45.4,28.4l0.1-1.5L45.4,28.4L45.4,28.4z M45.7,28.4L45.7,28.4l0.1-1.5L45.7,28.4
								L45.7,28.4z M46,28.4L46,28.4l0.1-1.5L46,28.4L46,28.4z M46.3,28.4L46.3,28.4l0.1-1.5L46.3,28.4L46.3,28.4z M46.6,28.4
								L46.6,28.4l0.1-1.5L46.6,28.4L46.6,28.4z M46.9,28.4L46.9,28.4l0.1-1.5L46.9,28.4L46.9,28.4z M47.2,28.3L47.2,28.3l0.1-1.5
								L47.2,28.3L47.2,28.3z M47.5,28.3L47.5,28.3l0.1-1.5L47.5,28.3L47.5,28.3z M47.7,28.3L47.7,28.3l0.1-1.5L47.7,28.3L47.7,28.3
								z M48,28.3L48,28.3l0.1-1.5L48,28.3L48,28.3z M48.3,28.3L48.3,28.3l0.1-1.5L48.3,28.3L48.3,28.3z M48.6,28.3L48.6,28.3
								l0.1-1.5L48.6,28.3L48.6,28.3z M48.9,28.2L48.9,28.2l0.1-1.5L48.9,28.2L48.9,28.2z M49.2,28.2L49.2,28.2l0.1-1.5L49.2,28.2
								L49.2,28.2z M49.5,28.2L49.5,28.2l0.1-1.5L49.5,28.2L49.5,28.2z M49.8,28.2L49.8,28.2l0.1-1.5L49.8,28.2L49.8,28.2z
								 M50.1,28.2L50.1,28.2l0.1-1.5L50.1,28.2L50.1,28.2z M50.4,28.2L50.4,28.2l0.1-1.5L50.4,28.2L50.4,28.2z M50.7,28.1
								L50.7,28.1l0.1-1.5L50.7,28.1L50.7,28.1z M51,28.1L51,28.1l0.1-1.5L51,28.1L51,28.1z M51.2,28.1L51.2,28.1l0.1-1.5L51.2,28.1
								L51.2,28.1z M51.5,28.1L51.5,28.1l0.1-1.5L51.5,28.1L51.5,28.1z M51.8,28.1L51.8,28.1l0.1-1.5L51.8,28.1L51.8,28.1z
								 M52.1,28.1L52.1,28.1l0.1-1.5L52.1,28.1L52.1,28.1z M52.4,28L52.4,28l0.1-1.5L52.4,28L52.4,28z M52.7,28L52.7,28l0.1-1.5
								L52.7,28L52.7,28z M53,28L53,28l0.1-1.5L53,28z"/>
							<path class="st13" d="M44.2,27.1L44,28.6l-0.1,0c-0.2,0-0.3-1.5,0.1-1.5L44.2,27.1L44.2,27.1z M53.4,28l0.1-1.5l0.1,0
								C54,26.5,53.6,28,53.4,28L53.4,28z"/>
							<path class="st3" d="M44.1,27.1l-0.1,1.3l0,0c-0.1-0.1-0.1-0.5-0.1-0.6C43.8,27.6,43.8,27.1,44.1,27.1L44.1,27.1L44.1,27.1z
								 M53.6,27.5l0.1-1c0,0,0,0.2,0,0.2c0,0.2,0,0.3,0,0.5C53.7,27.3,53.6,27.4,53.6,27.5z"/>
						</g>
						<path class="st33" d="M53.4,28l-9.6,0.5l0.5,0.5l0.3,0.3c0.2-0.1,0.5-0.2,0.9-0.2c1.9-0.2,3.8-0.3,5.7-0.3
							c0.2,0,0.3,0,0.4,0.1l1.6-0.7L53.4,28z"/>
						<polygon class="st42" points="53.4,28 43.9,28.6 44.2,28.9 53.2,28.4 						"/>
						<path class="st13" d="M51.8,30.8c-1-1.3-3.8-1.3-5.8-0.3c-1.3,0.6-2.3,1.5-2.6,3l0-3.3c0.5-0.2,1.2-0.8,2.1-0.9
							c1.9-0.2,3.8-0.3,5.7-0.3c0.2,0,0.3,0.1,0.4,0.3C51.8,29.6,51.8,30.1,51.8,30.8z"/>
						<path class="st2" d="M51.5,29.2c-0.1-0.1-0.1-0.1-0.3-0.1c-1.9,0-3.8,0.1-5.6,0.3c-0.1,0-0.3,0-0.4,0.1l0,0.1
							c0.1,0,0.3,0,0.4-0.1c1.9-0.2,3.8-0.3,5.7-0.3C51.3,29.2,51.4,29.2,51.5,29.2z"/>
						<path class="st2" d="M45.5,30.8c-0.8,0.5-1.4,1.1-1.8,1.9l-0.3,0l0-2.5c0.4-0.2,1-0.6,1.7-0.8L45.5,30.8z"/>
						<path class="st37" d="M45.3,30.7L45,29.5c-0.3,0.1-0.5,0.2-0.7,0.3c0,0,0.1,0,0.1,0.1c0.2-0.1,0.3-0.1,0.5-0.2l0.3,1.1
							C45.3,30.8,45.3,30.7,45.3,30.7L45.3,30.7z M43.6,32.6L43.6,32.6c0-0.1,0.1-0.1,0.1-0.2C43.6,32.4,43.6,32.5,43.6,32.6z"/>
						<path class="st37" d="M51,29.3c-1.7,0-3.3,0.1-5,0.2c-0.4,0-0.3,0.7,0.2,0.5c1.4-0.5,3.5-0.7,4.9-0.2
							C51.9,30.1,51.4,29.3,51,29.3z"/>
						<polygon class="st43" points="43.8,28.8 44.4,29.5 43.7,29.1 43.3,29.3 						"/>
						<path class="st31" d="M44.2,29.8c0.5,0.2,0.7,0.8,0.6,1.2c0,0-0.1,0.1-0.2,0.2c0-0.1,0.1-0.3,0.1-0.4
							C44.7,30.5,44.5,30,44.2,29.8z"/>
						<polygon class="st43" points="43.8,29.8 43.3,29.8 43.2,29.4 						"/>
					</g>
					<g>
						<path class="st43" d="M43.3,33.7c-2.1,12,1.6,18.3,3.5,27.5c0.4,2.1,6.6,2,6.6-0.2c-0.1-11.3,3.4-20.3-1.4-29.9
							c-0.8-1.6-3.8-1.7-6-0.6C44.6,31.1,43.6,32.1,43.3,33.7z"/>
						<path class="st44" d="M47.3,32.3c-1.2,8.9,1.4,20,2.3,28.1c0.1,1.3-0.4,1.4-0.6,0.1c-1-7.9-3.7-19.1-2.3-28.5
							c0.1-0.6,0.2-1.1-0.4-1.3c1.3-0.6,3-1,4.2-0.2C49.2,30.2,47.6,30.8,47.3,32.3L47.3,32.3z M52.6,61c0-0.1,0-0.1,0-0.2
							c-0.1-6.8,1.1-13.1,0.7-20c-0.2-3.2-0.6-6.3-2.1-9.6c-0.2-0.5,0-0.8,0.4,0c4,8,2.2,15.8,1.6,24.3c-0.1,1.8-0.2,3.6-0.2,5.4
							L52.6,61z"/>
						<path class="st45" d="M46.2,32.5c-1,9.1,1,20.3,2,28.6c0,0.4,1.4,1.1,4.7,0.3c-1.4,1.6-4.5,0.8-4.7,0.7
							c-0.4-0.1-0.8-0.4-1-0.8c0,0,0-0.1,0-0.2c-0.3-1.6-0.7-3.2-1.2-4.8c-0.4-1.5-0.8-3-1.3-4.6c-0.7-2.7-1.3-5.3-1.5-8.1
							c-0.3-3.3-0.1-6.6,0.5-9.8c0.3-2,1.4-2.7,2.2-2.8C46.8,30.9,46.3,31.8,46.2,32.5z"/>
						<path class="st43" d="M45.2,50.7c-1-4.5-2.3-10.3-0.7-17.3c0.2-1,1-2,0.7,0c-1,6.1-0.2,11.1,0.7,17.2
							C46.1,52.3,45.6,52.7,45.2,50.7z"/>
						<path class="st46" d="M50.6,31.9c1.5,3,1.9,5.5,2.1,8.9c0.2,3.2,0,6.5-0.3,9.7c-0.1,1.7-0.3,3.4-0.4,5.2
							c-0.1,1.7-0.2,3.5-0.1,5.2c0,0.6-1.4,0.6-1.4,0.1c-0.6-8.7-4.1-20.9-2.2-28.6C48.7,30.7,50.2,31,50.6,31.9z"/>
						<path class="st47" d="M50.2,32c0.6,1.3,1.1,2.5,1.4,3.9c0.4,1.6,0.5,3.2,0.7,4.8c0.2,2.6-0.2,8-0.4,10.9
							C51.8,47.3,52.2,39,50,34.3c-0.1-0.2-0.5-0.6-0.8-0.5c-0.5,0.1-0.4-1.1-0.1-1.8C49.3,31.2,49.9,31.5,50.2,32z"/>
					</g>
					<g>
						<path class="st2" d="M41.8,39c0.3,0,0.6,0.4,0.6,0.9c0,0.5-0.2,0.9-0.6,0.9l-0.6,0.1l0-1l0.1-0.8L41.8,39z"/>
						<path class="st2" d="M44,29.8c0.3,0,0.6,0.5,0.6,1c0,0.5-0.3,0.8-0.6,0.9l-0.6,0l-0.1-1l0-0.8L44,29.8z"/>
						<path class="st37" d="M44.5,30.5c0-0.1-0.1-0.2-0.1-0.3C44.3,30.1,44.2,30,44,30c0,0,0,0,0,0l-0.2,0c0.2,0.1,0.3,0.3,0.3,0.6
							L44.5,30.5z"/>
						<path class="st31" d="M43.9,31.6L43.9,31.6c0.4,0,0.5-0.3,0.6-0.6l-0.4,0C44.1,31.2,44.1,31.4,43.9,31.6z"/>
						<path class="st2" d="M43.8,31.6l0.5,0c0,1.6-2.4,3.6-2,7.9l-0.5,0.1C40.9,37.4,42,33.8,43.8,31.6z"/>
						<path class="st48" d="M43.1,34.2c0.2-0.4,0.4-0.9,0.6-1.3c0.2-0.4,0.3-0.8,0.4-1.2l-0.3,0c-0.2,0.9-0.6,1.6-1.1,2.5L43.1,34.2
							z"/>
						<path class="st13" d="M42.1,39.2c-0.1-1.1,0-2.1,0.3-3.1l-0.3,0c-0.2,0.8-0.3,1.8-0.3,3.1L42.1,39.2z"/>
						<path class="st37" d="M42.9,31.2l0.8,0.4c-0.4,2.1-2.4,3.4-2,7.9l-1-0.1C40.5,34.3,42.2,33.9,42.9,31.2z"/>
						<path class="st37" d="M43.4,29.9c0.3,0,0.6,0.5,0.6,1c0,0.5-0.3,0.9-0.6,0.9c-0.3,0-0.6-0.5-0.6-1
							C42.8,30.2,43.1,29.8,43.4,29.9z"/>
						<path class="st37" d="M41.3,39c0.3,0,0.6,0.4,0.6,1c0,0.5-0.3,0.9-0.6,0.9c-0.3,0-0.6-0.4-0.6-1C40.7,39.3,41,38.9,41.3,39z"
							/>
						<path class="st2" d="M41.7,40.3c-0.1,0.2-0.2,0.3-0.4,0.3c-0.3,0-0.5-0.4-0.5-0.8c0-0.3,0.1-0.5,0.3-0.6
							c-0.1,0.1-0.1,0.3-0.1,0.4c0,0.4,0.2,0.8,0.5,0.8C41.5,40.4,41.6,40.4,41.7,40.3z"/>
						<path class="st39" d="M41.4,39.2c0.2,0,0.3,0.2,0.3,0.5c0,0.3-0.1,0.5-0.3,0.5c-0.2,0-0.3-0.2-0.3-0.5
							C41.1,39.4,41.2,39.2,41.4,39.2z"/>
						<path class="st2" d="M43.9,31.2c-0.1,0.2-0.2,0.3-0.4,0.3c-0.3,0-0.5-0.4-0.5-0.8c0-0.3,0.1-0.5,0.2-0.6
							c0,0.1-0.1,0.3-0.1,0.4c0,0.4,0.3,0.8,0.5,0.8C43.7,31.3,43.8,31.3,43.9,31.2z"/>
						<path class="st39" d="M43.5,30.1c0.2,0,0.3,0.2,0.3,0.5c0,0.3-0.1,0.5-0.3,0.5c-0.2,0-0.3-0.2-0.3-0.5
							C43.3,30.3,43.4,30.1,43.5,30.1z"/>
						<path class="st37" d="M42.3,39.7c0-0.1-0.1-0.3-0.1-0.4c0-0.1-0.1-0.1-0.2-0.1l-0.2,0c0.1,0.1,0.1,0.3,0.1,0.5L42.3,39.7z"/>
						<path class="st31" d="M41.7,40.7l0.1,0c0.3,0,0.4-0.3,0.5-0.6l-0.4,0C41.9,40.4,41.8,40.6,41.7,40.7z"/>
						<path class="st39" d="M43.5,31.8c-0.5,1.9-2.2,3.2-2,7.1l0.1,0.1c-0.1-1.4,0.1-2.7,0.6-4c0.2-0.5,0.4-1,0.7-1.5
							c0.2-0.4,0.4-0.9,0.6-1.3C43.6,32.1,43.6,31.9,43.5,31.8L43.5,31.8z"/>
						<path class="st2" d="M43,31.5c-0.5,2-2.3,3.3-2.1,7.5l0.1-0.1c-0.1-1.4,0.1-2.7,0.7-4.1C42,33.7,42.6,32.8,43,31.5L43,31.5z"
							/>
					</g>
					<g>
						<path class="st49" d="M49,62.7l0,0.8c0,0.1,0.1,0.2,0.2,0.2l1.9-0.1c0.1,0,0.2-0.1,0.2-0.2l0-0.7C50.6,62.8,49.8,62.8,49,62.7
							z"/>
						<path class="st50" d="M49.2,63.4c0,0.1,0.1,0.1,0.1,0.1l0.5,0c0,0,0-0.1,0-0.1l0-0.5c-0.2,0-0.4,0-0.6-0.1L49.2,63.4
							L49.2,63.4z M50.7,63.4l0.4,0c0.1,0,0.1-0.1,0.1-0.1l0-0.5c-0.2,0-0.3,0.1-0.5,0.1l0,0.5C50.8,63.4,50.8,63.4,50.7,63.4z"/>
						<path class="st49" d="M51,67L49.8,67c-0.1,0-0.2-0.1-0.2-0.1l-0.3-3.3l1.9-0.1l0,3.3C51.2,66.9,51.1,66.9,51,67z"/>
						<path class="st50" d="M49.8,63.6l-0.4,0l0.3,3.2c0,0.1,0.1,0.1,0.1,0.1l0.2,0c0,0,0-0.1,0-0.1L49.8,63.6L49.8,63.6z
							 M51.1,63.5l-0.3,0l0.1,3.2c0,0,0,0.1,0,0.1l0.2,0c0.1,0,0.1-0.1,0.1-0.1L51.1,63.5z"/>
						<path class="st51" d="M51,66.7c-0.2,0-0.4,0-0.6,0c-0.2,0-0.4,0-0.6,0c0,0-0.1,0-0.1-0.1l0,0c0,0,0-0.1,0.1-0.1
							c0.2,0,0.4,0,0.6,0c0.2,0,0.4,0,0.6,0C51,66.6,51,66.6,51,66.7L51,66.7C51,66.7,51,66.7,51,66.7L51,66.7z M50.9,63.9
							c-0.2,0-0.5,0-0.7,0c-0.2,0-0.5,0-0.7,0c0,0-0.1,0-0.1-0.1l0,0c0,0,0-0.1,0.1-0.1c0.2,0,0.5,0,0.7,0c0.2,0,0.5,0,0.7,0
							C51,63.7,51,63.8,50.9,63.9L50.9,63.9C51,63.8,51,63.9,50.9,63.9L50.9,63.9z M50.9,64.2c-0.2,0-0.5,0-0.7,0
							c-0.2,0-0.5,0-0.7,0c0,0-0.1,0-0.1-0.1l0,0c0,0,0-0.1,0.1-0.1c0.2,0,0.5,0,0.7,0c0.2,0,0.5,0,0.7,0C51,64,51,64.1,50.9,64.2
							L50.9,64.2C51,64.1,51,64.2,50.9,64.2L50.9,64.2z M51,64.5c-0.2,0-0.5,0-0.7,0c-0.2,0-0.5,0-0.7,0c0,0-0.1,0-0.1-0.1l0,0
							c0,0,0-0.1,0.1-0.1c0.2,0,0.5,0,0.7,0c0.2,0,0.5,0,0.7,0C51,64.4,51,64.4,51,64.5L51,64.5C51,64.5,51,64.5,51,64.5L51,64.5z
							 M51,64.8c-0.2,0-0.4,0-0.7,0c-0.2,0-0.4,0-0.7,0c0,0-0.1,0-0.1-0.1l0,0c0,0,0-0.1,0.1-0.1c0.2,0,0.4,0,0.7,0
							c0.2,0,0.4,0,0.7,0C51,64.7,51,64.7,51,64.8L51,64.8C51,64.8,51,64.8,51,64.8L51,64.8z M51,65.1c-0.2,0-0.4,0-0.6,0
							c-0.2,0-0.4,0-0.6,0c0,0-0.1,0-0.1-0.1l0,0c0,0,0-0.1,0.1-0.1c0.2,0,0.4,0,0.7,0c0.2,0,0.4,0,0.7,0C51,65,51,65,51,65.1
							L51,65.1C51,65.1,51,65.1,51,65.1L51,65.1z M51,65.5c-0.2,0-0.4,0-0.6,0c-0.2,0-0.4,0-0.6,0c0,0-0.1,0-0.1-0.1l0,0
							c0,0,0-0.1,0.1-0.1c0.2,0,0.4,0,0.6,0c0.2,0,0.4,0,0.6,0C51,65.3,51,65.3,51,65.5L51,65.5C51,65.4,51,65.4,51,65.5L51,65.5z
							 M51,65.8c-0.2,0-0.4,0-0.6,0c-0.2,0-0.4,0-0.6,0c0,0-0.1,0-0.1-0.1l0,0c0,0,0-0.1,0.1-0.1c0.2,0,0.4,0,0.6,0
							c0.2,0,0.4,0,0.6,0C51,65.6,51,65.7,51,65.8L51,65.8C51,65.7,51,65.8,51,65.8L51,65.8z M51,66.1c-0.2,0-0.4,0-0.6,0
							c-0.2,0-0.4,0-0.6,0c0,0-0.1,0-0.1-0.1l0,0c0,0,0-0.1,0.1-0.1c0.2,0,0.4,0,0.6,0c0.2,0,0.4,0,0.6,0C51,65.9,51,66,51,66.1
							L51,66.1C51,66.1,51,66.1,51,66.1L51,66.1z M51,66.4c-0.2,0-0.4,0-0.6,0c-0.2,0-0.4,0-0.6,0c0,0-0.1,0-0.1-0.1l0,0
							c0,0,0-0.1,0.1-0.1c0.2,0,0.4,0,0.6,0c0.2,0,0.4,0,0.6,0C51,66.3,51,66.3,51,66.4L51,66.4C51,66.4,51,66.4,51,66.4z"/>
						<path class="st49" d="M51,66.7l-0.1,0l0-0.1l0.1,0C51,66.6,51,66.6,51,66.7L51,66.7C51,66.7,51,66.7,51,66.7L51,66.7z
							 M50,66.8l-0.2,0c0,0-0.1,0-0.1-0.1l0,0c0,0,0-0.1,0.1-0.1l0.2,0L50,66.8L50,66.8z M50,66.5l0-0.1l-0.2,0c0,0-0.1,0-0.1,0.1
							l0,0c0,0,0,0.1,0.1,0.1L50,66.5L50,66.5z M50,66.1l0-0.1l-0.2,0c0,0-0.1,0-0.1,0.1l0,0c0,0,0,0.1,0.1,0.1L50,66.1L50,66.1z
							 M49.9,65.8l0-0.1l-0.2,0c0,0-0.1,0-0.1,0.1l0,0c0,0,0,0.1,0.1,0.1L49.9,65.8L49.9,65.8z M49.9,65.5l0-0.1l-0.2,0
							c0,0-0.1,0-0.1,0.1l0,0c0,0,0,0.1,0.1,0.1L49.9,65.5L49.9,65.5z M49.9,65.2l0-0.1l-0.2,0c0,0-0.1,0-0.1,0.1l0,0
							c0,0,0,0.1,0.1,0.1L49.9,65.2L49.9,65.2z M49.9,64.9l0-0.1l-0.2,0c0,0-0.1,0-0.1,0.1l0,0c0,0,0,0.1,0.1,0.1L49.9,64.9
							L49.9,64.9z M49.8,64.6l0-0.1l-0.2,0c0,0-0.1,0-0.1,0.1l0,0c0,0,0,0.1,0.1,0.1L49.8,64.6L49.8,64.6z M49.8,64.2l0-0.1l-0.2,0
							c0,0-0.1,0-0.1,0.1l0,0c0,0,0,0.1,0.1,0.1L49.8,64.2L49.8,64.2z M49.8,63.9l0-0.1l-0.2,0c0,0-0.1,0-0.1,0.1l0,0
							c0,0,0,0.1,0.1,0.1L49.8,63.9L49.8,63.9z M50.7,63.7l0,0.1l0.2,0c0,0,0.1,0,0.1-0.1l0,0c0,0,0-0.1-0.1-0.1L50.7,63.7
							L50.7,63.7z M50.8,64.1l0,0.1l0.2,0c0,0,0.1,0,0.1-0.1l0,0c0,0,0-0.1-0.1-0.1L50.8,64.1L50.8,64.1z M50.8,64.4l0,0.1l0.2,0
							c0,0,0.1,0,0.1-0.1l0,0c0,0,0-0.1-0.1-0.1L50.8,64.4L50.8,64.4z M50.8,64.7l0,0.1l0.2,0c0,0,0.1,0,0.1-0.1l0,0
							c0,0,0-0.1-0.1-0.1L50.8,64.7L50.8,64.7z M50.8,65l0,0.1l0.2,0c0,0,0.1,0,0.1-0.1l0,0c0,0,0-0.1-0.1-0.1L50.8,65L50.8,65z
							 M50.8,65.3l0,0.1l0.2,0c0,0,0.1,0,0.1-0.1l0,0c0,0,0-0.1-0.1-0.1L50.8,65.3L50.8,65.3z M50.8,65.6l0,0.1l0.2,0
							c0,0,0.1,0,0.1-0.1l0,0c0,0,0-0.1-0.1-0.1L50.8,65.6L50.8,65.6z M50.8,66l0,0.1l0.1,0c0,0,0.1,0,0.1-0.1l0,0
							c0,0,0-0.1-0.1-0.1L50.8,66L50.8,66z M50.8,66.3l0,0.1l0.1,0c0,0,0.1,0,0.1-0.1l0,0c0,0,0-0.1-0.1-0.1L50.8,66.3z"/>
						<path class="st51" d="M50.6,66.9l-0.3,0c0,0-0.1-0.1-0.1-0.1L50,63.6l0.5,0l0.1,3.2C50.7,66.8,50.6,66.9,50.6,66.9z"/>
						<path class="st39" d="M50.2,66.8l0-0.1l0.2,0l0.3,0l0,0.1l-0.3,0L50.2,66.8L50.2,66.8z M50.2,66.4l0-0.1l0.2,0l0.3,0l0,0.1
							l-0.3,0L50.2,66.4L50.2,66.4z M50.2,66.1l0-0.1l0.2,0l0.3,0l0,0.1l-0.3,0L50.2,66.1L50.2,66.1z M50.2,65.8l0-0.1l0.2,0l0.3,0
							l0,0.1l-0.3,0L50.2,65.8L50.2,65.8z M50.2,65.5l0-0.1l0.2,0l0.3,0l0,0.1l-0.3,0L50.2,65.5L50.2,65.5z M50.1,65.2l0-0.1l0.2,0
							l0.3,0l0,0.1l-0.3,0L50.1,65.2L50.1,65.2z M50.1,64.9l0-0.1l0.2,0l0.3,0l0,0.1l-0.3,0L50.1,64.9L50.1,64.9z M50.1,64.5l0-0.1
							l0.2,0l0.3,0l0,0.1l-0.3,0L50.1,64.5L50.1,64.5z M50.1,64.2l0-0.1l0.2,0l0.3,0l0,0.1l-0.3,0L50.1,64.2L50.1,64.2z M50,63.9
							l0-0.1l0.2,0l0.3,0l0,0.1l-0.3,0L50,63.9z"/>
						<path class="st51" d="M50,62.9l0,0.4c0,0.1,0,0.1,0.1,0.1l0.4,0c0,0,0-0.1,0-0.1l0-0.4C50.3,62.9,50.1,62.9,50,62.9z"/>
					</g>
				</g>
			</g>
		</g>
		<path class="st0" d="M7.9,53.6C27,43.5,73,43.5,92.1,53.6c0.5,0.3,0.7,0.9,0.5,1.4c-0.2,0.5-1.4,13.9-1.9,13.8
			c-11.9-0.6-64.2-1.5-78.8,0.1C11.3,69,7.6,55.5,7.4,55C7.2,54.4,7.4,53.8,7.9,53.6z"/>
		<g>
			<path class="st52" d="M10.1,53.8c2.4-0.7,4.9-1.3,7.4-1.8c3.4-0.7,6.8-1.3,10.2-1.7c7.4-0.9,14.9-1.4,22.3-1.4
				c7.4,0,15,0.4,22.3,1.4c3.4,0.4,6.8,1,10.2,1.7c2.5,0.5,4.9,1.1,7.4,1.8C70.8,45,29.2,45,10.1,53.8z"/>
			<path class="st53" d="M20,51c2.5-0.5,5-0.9,7.6-1.2c7.4-0.9,14.9-1.4,22.4-1.4c7.5,0,15,0.4,22.4,1.4c2.5,0.3,5.1,0.7,7.6,1.2
				C62.6,46.6,37.4,46.6,20,51z"/>
		</g>
		<g>
			<path class="st54" d="M88.7,69.1c-2-0.7-4.1-1.2-6.2-1.7c-3.3-0.8-6.6-1.3-10-1.8c-3.7-0.5-7.3-0.8-11-1.1
				c-3.8-0.2-7.7-0.4-11.5-0.4s-7.7,0.1-11.5,0.4c-3.7,0.2-7.4,0.6-11,1.1c-3.3,0.5-6.7,1-10,1.8c-2.1,0.5-4.2,1-6.2,1.7
				c2.2-0.5,4.4-0.8,6.5-1.2c3.3-0.5,6.7-0.9,10-1.2c7.4-0.7,14.8-0.9,22.2-0.9c7.4,0,14.8,0.3,22.2,0.9c3.4,0.3,6.7,0.7,10,1.2
				C84.4,68.3,86.6,68.7,88.7,69.1z"/>
			<path class="st55" d="M76.7,66.8c-1.4-0.2-2.8-0.5-4.2-0.6c-3.6-0.5-7.3-0.8-11-1.1c-3.8-0.2-7.7-0.4-11.5-0.4
				c-3.8,0-7.7,0.1-11.5,0.4c-3.7,0.2-7.3,0.6-11,1.1c-1.4,0.2-2.8,0.4-4.2,0.6c1.5-0.2,3-0.3,4.5-0.5c7.4-0.7,14.8-0.9,22.2-0.9
				c7.4,0,14.8,0.3,22.2,0.9C73.7,66.4,75.2,66.6,76.7,66.8z"/>
		</g>
		<g>
			<path class="st56" d="M56.7,33.5c0,0-0.1,0-0.1,0c-0.1,0-0.1,0-0.2-0.1c-0.5-0.2-0.9-0.7-1.1-1.2c0-0.1-0.1-0.2-0.1-0.3
				c0,0,0,0,0,0c0-0.1,0-0.2,0-0.2c0,0,0,0,0,0c0-0.4,0.1-0.8,0.3-1.1c0.1-0.1,0.1-0.2,0.2-0.3c0,0,0.1-0.1,0.1-0.1
				c-0.3,0.1-0.6,0.3-0.8,0.5c-0.1,0.1-0.1,0.2-0.2,0.2c-0.2,0.3-0.2,0.6-0.2,0.9c0,0,0,0,0,0c0,0.1,0,0.1,0,0.2c0,0,0,0,0,0
				c0,0.1,0,0.2,0.1,0.2c0.2,0.5,0.5,0.8,0.9,1c0,0,0.1,0,0.1,0.1c0,0,0.1,0,0.1,0.1c0.1,0,0.2,0,0.2,0.1c0.1,0,0.2,0,0.3,0
				C56.6,33.6,56.7,33.5,56.7,33.5L56.7,33.5z M63.5,34.1c-0.3-0.1-0.5-0.2-0.7-0.4c-0.1-0.1-0.1-0.1-0.2-0.2
				c-0.1-0.1-0.2-0.3-0.3-0.4c-0.1-0.1-0.1-0.2-0.1-0.3c-0.1-0.3-0.1-0.6-0.1-0.9c0,0,0-0.1,0-0.1c0,0,0-0.1,0-0.1
				c0.1-0.4,0.3-0.7,0.5-0.9c0,0-0.1,0-0.1,0.1c-0.1,0-0.2,0.1-0.3,0.1c-0.4,0.2-0.6,0.6-0.7,1c0,0,0,0.1,0,0.1c0,0,0,0,0,0.1
				c0,0.3,0,0.5,0.1,0.8c0,0.1,0.1,0.2,0.1,0.3c0.1,0.1,0.2,0.3,0.3,0.4c0,0.1,0.1,0.1,0.2,0.2c0.2,0.2,0.5,0.4,0.8,0.4
				c0.1,0,0.2,0,0.3,0c0,0,0.1,0,0.1,0C63.4,34.1,63.5,34.1,63.5,34.1C63.5,34.1,63.5,34.1,63.5,34.1C63.5,34.1,63.5,34.1,63.5,34.1
				z"/>
			<path class="st56" d="M55.4,45.2c0.1,0,0.1-0.1,0.2-0.1c0.8-0.5,0.7-2,0.6-2.7c-0.1-0.9-0.3-1.8-0.5-2.7
				c-0.2-0.8-0.4-1.6-0.7-2.3c0.2,1.5,0.4,2.9,0.5,4.4c0,0.7,0.1,1.4,0.1,2.1C55.5,44.3,55.5,44.7,55.4,45.2z"/>
			<path class="st56" d="M59.6,36.1c-0.5,0.8,0.4,1.2,1.1,0.7c1-0.8-0.3-2.4-1.6-1.6c-0.7,0.4-0.8,1.3-0.7,2c0,0.6,0.1,1.2,0.3,1.8
				c0.1,0.4,0.3,0.9,0.4,1.3c0-0.2,0.1-0.3,0.1-0.5c0.2-0.6,0.5-1.4,1-1.9c-0.6-0.1-1.2-0.3-1.3-0.9c-0.2-0.7,0.4-2,1.2-1.7
				c0.2,0.1,0.5,0.3,0.5,0.5c0,0.1-0.1,0.2-0.1,0.3c-0.1,0.1-0.3,0.3-0.5,0.2C59.7,36.4,59.7,36.3,59.6,36.1z"/>
			<path class="st57" d="M58.7,37.6c0,0.5,0.1,1,0.3,1.5c0,0.1,0.1,0.2,0.1,0.3c0.1-0.4,0.3-0.8,0.6-1.1
				C59.3,38.1,59,37.9,58.7,37.6z"/>
			<path class="st56" d="M64.8,36.4c-0.8,2.6-1.8,5.2-3.1,7.6c0.5-0.6,1-1.3,1.5-1.9c0.5-0.7,1-1.5,1.4-2.3c0.4-0.9,0.9-2.2,0.4-3.1
				C64.9,36.5,64.9,36.4,64.8,36.4z"/>
			<path class="st56" d="M38,28.8c0.1,0,0.1,0.1,0.2,0.1c1.4,0.8,1.7,3.3,1.7,4.9c0.3-0.6,0.7-1.2,1-1.8c0.3-0.5,0.5-1,0.7-1.6
				c0.2-0.5,0.4-1.3,0-1.7c-0.3-0.3-0.9-0.4-1.4-0.3c-0.4,0-0.8,0.1-1.1,0.1C38.7,28.7,38.3,28.8,38,28.8z"/>
			<path class="st57" d="M39.5,29.2c0.4,0.6,0.7,1.4,0.9,2.2c0.2-0.4,0.4-0.8,0.5-1.2c0.1-0.2,0.3-0.8,0.1-1
				c-0.1-0.1-0.7-0.1-0.8-0.1C40,29.2,39.7,29.2,39.5,29.2z"/>
			<path class="st58" d="M24.5,34.3c0,0.2,0,0.5-0.2,0.6c-0.6,0.3-1.6-0.7-0.5-1.4c0.1-0.1,0.3-0.1,0.4-0.1c0.5,0,1,0.5,1.2,0.9
				c0.2,0.3,0.4,0.8,0.3,1.2c-0.1,0.9-1,1.4-1.7,1.6c0.5,0.7,0.8,1.6,1,2.5c0.3,1.2,0.3,2.4,0.2,3.6c0.7-1.8,1.2-3.8,1.3-5.7
				c0.1-1.3,0.1-3.4-1.1-4.2c-0.1-0.1-0.3-0.2-0.4-0.2c-0.7-0.3-1.3-0.2-1.9,0.3c-0.4,0.4-0.7,1-0.6,1.5c0.1,0.4,0.3,0.7,0.6,0.8
				C24.4,36.3,25.6,35.4,24.5,34.3z"/>
			<path class="st59" d="M25.6,40c0.2-0.9,0.3-1.7,0.4-2.6c0-0.3,0-0.8,0-1.2c-0.3,0.5-0.8,0.9-1.3,1.1c0.3,0.7,0.6,1.4,0.8,2.1
				C25.5,39.6,25.6,39.8,25.6,40z"/>
			<path class="st59" d="M26.1,34c0,0.4-0.2,0.7-0.4,1c-0.1-0.3-0.2-0.5-0.3-0.7c-0.3-0.4-0.7-0.9-1.2-0.9c-0.1,0-0.3,0-0.4,0.1
				c-1.2,0.6-0.1,1.7,0.5,1.4c0.2-0.1,0.3-0.4,0.2-0.6c1.1,1.1-0.1,1.9-1.3,1.4c-0.3-0.2-0.6-0.5-0.6-0.8c-0.1-0.6,0.2-1.2,0.6-1.5
				c0.5-0.5,1.2-0.6,1.9-0.3c0.2,0.1,0.3,0.1,0.4,0.2C25.7,33.4,25.9,33.7,26.1,34z"/>
			<path class="st58" d="M72.6,45.8c0.1-0.2,0.3-0.4,0.5-0.3c0.3,0,0.4,0.3,0.5,0.6c0,0.2,0,0.3,0,0.5c-0.1,0.4-0.5,0.4-0.9,0.4
				c-0.1,0-0.3-0.1-0.4-0.2c-0.7-0.5-0.6-2-0.1-2.6c0.6-0.7,1.6-0.6,2.3-0.3c-0.1-0.8,0-1.6,0.2-2.4c0.2-0.9,0.5-1.8,1-2.6
				c-1.6,1.3-3.1,2.9-4.1,4.7c-0.5,0.9-0.9,2.1-0.3,3c0.4,0.6,1,0.9,1.7,0.8c0.6-0.1,1.1-0.4,1.4-0.9c0.2-0.3,0.1-0.7,0-1.1
				c-0.2-0.3-0.4-0.6-0.8-0.7c-0.2-0.1-0.5-0.1-0.8,0C72.5,44.9,72.5,45.4,72.6,45.8z"/>
			<path class="st59" d="M72.4,43.4c0.5-0.3,1.1-0.3,1.7-0.2c0-0.6,0.1-1.2,0.2-1.8c0-0.2,0.1-0.4,0.1-0.6
				C73.6,41.6,72.9,42.4,72.4,43.4z"/>
			<path class="st59" d="M71.1,45.1c0.2-0.2,0.5-0.4,0.9-0.6c-0.3,0.7-0.3,1.8,0.3,2.2c0.1,0.1,0.3,0.1,0.4,0.2c0.3,0,0.7,0,0.9-0.4
				c0.1-0.1,0.1-0.3,0-0.5c-0.1-0.2-0.2-0.5-0.5-0.6c-0.2,0-0.4,0.1-0.5,0.3c-0.1-0.4-0.1-0.9,0.3-1.1c0.2-0.1,0.5-0.1,0.8,0
				c0.3,0.1,0.6,0.4,0.8,0.7c0.2,0.3,0.2,0.7,0,1.1c-0.2,0.5-0.8,0.8-1.4,0.9c-0.7,0.1-1.3-0.3-1.7-0.8C71.1,46.1,71,45.6,71.1,45.1
				z"/>
		</g>
		<g>
			<path class="st52" d="M16.6,42.1c0.1,0.2,0.3,0.4,0.5,0.3c0.2-0.1,0.4-0.3,0.3-0.5c-0.1-0.2-0.3-0.4-0.5-0.3
				C16.6,41.6,16.5,41.9,16.6,42.1L16.6,42.1z M16.7,43.4c0.1,0.3,0.4,0.4,0.6,0.3c0.3-0.1,0.4-0.4,0.3-0.6
				c-0.1-0.3-0.4-0.4-0.6-0.3C16.7,42.8,16.6,43.1,16.7,43.4L16.7,43.4z M16.8,44.9c0.1,0.3,0.4,0.5,0.7,0.4
				c0.3-0.1,0.5-0.4,0.4-0.7c-0.1-0.3-0.4-0.5-0.7-0.4C16.9,44.2,16.7,44.6,16.8,44.9L16.8,44.9z M16.6,39c0.1,0,0.1-0.1,0.1-0.2
				c0-0.1-0.1-0.1-0.2-0.1c-0.1,0-0.1,0.1-0.1,0.2C16.5,39,16.6,39,16.6,39L16.6,39z M16.7,39.6c0.1-0.1,0.1-0.2,0.1-0.3
				c-0.1-0.1-0.2-0.1-0.3-0.1c-0.1,0.1-0.1,0.2-0.1,0.3C16.5,39.6,16.6,39.7,16.7,39.6L16.7,39.6z M16.4,40.2c0,0.2,0.2,0.2,0.4,0.2
				c0.2,0,0.2-0.2,0.2-0.4c0-0.2-0.2-0.2-0.4-0.2C16.5,39.8,16.4,40,16.4,40.2L16.4,40.2z M16.5,41c0.1,0.2,0.3,0.3,0.5,0.2
				c0.2-0.1,0.3-0.3,0.2-0.5c-0.1-0.2-0.3-0.3-0.5-0.2C16.5,40.6,16.4,40.8,16.5,41z"/>
			<path class="st54" d="M17.2,47.5c-0.2,0.1-0.4,0.1-0.5,0c-0.5-0.3-0.1-1.6,0.9-0.9c0.1,0.1,0.2,0.2,0.3,0.3
				c0.3,0.7-0.3,1.8-1,2.1c-0.7,0.3-1.4-0.2-1.9-0.7c-0.4,0.7-0.9,1.3-1.5,1.7c-0.8,0.7-1.6,1.2-2.6,1.5c1.6-0.2,3.3-0.6,4.7-1.2
				c1-0.4,2.6-1.3,2.8-2.5c0-0.1,0-0.3,0-0.4c-0.1-0.6-0.4-1.1-1-1.3c-0.4-0.2-1-0.2-1.4,0.2c-0.3,0.2-0.4,0.5-0.4,0.8
				C15.7,48.1,16.8,48.7,17.2,47.5z"/>
			<path class="st54" d="M82.8,47.5c0.4,1.2,1.5,0.6,1.5-0.5c0-0.3-0.1-0.6-0.4-0.8c-0.4-0.3-0.9-0.3-1.4-0.2
				c-0.6,0.2-0.9,0.7-1,1.3c0,0.1,0,0.3,0,0.4c0.2,1.2,1.8,2.1,2.8,2.5c1.5,0.6,3.1,1,4.7,1.2c-0.9-0.4-1.8-0.9-2.6-1.5
				c-0.6-0.5-1.1-1.1-1.5-1.7c-0.5,0.5-1.2,1-1.9,0.7c-0.3-0.1-0.6-0.4-0.8-0.7c-0.3-0.5-0.5-1.2,0.1-1.6c0.3-0.2,0.6-0.3,0.8-0.1
				c0.1,0.1,0.2,0.2,0.2,0.4c0.1,0.2,0,0.5-0.2,0.6C83.2,47.6,83,47.6,82.8,47.5z"/>
			<path class="st55" d="M83.9,49.5c0.3,0.1,0.5,0.2,0.7,0.3c0.6,0.2,1.1,0.4,1.7,0.6c0,0-0.1-0.1-0.1-0.1C85.8,50,85.3,49.5,85,49
				C84.7,49.3,84.3,49.4,83.9,49.5z"/>
			<path class="st55" d="M16.1,49.5c-0.4-0.1-0.8-0.2-1.1-0.5c-0.4,0.5-0.8,1-1.3,1.4c0,0-0.1,0.1-0.1,0.1c0.6-0.2,1.2-0.4,1.7-0.6
				C15.6,49.7,15.9,49.6,16.1,49.5z"/>
			<path class="st52" d="M83.4,42.1c-0.1,0.2-0.3,0.4-0.5,0.3c-0.2-0.1-0.4-0.3-0.3-0.5c0.1-0.2,0.3-0.4,0.5-0.3
				C83.4,41.6,83.5,41.9,83.4,42.1L83.4,42.1z M83.3,43.4c-0.1,0.3-0.4,0.4-0.6,0.3c-0.3-0.1-0.4-0.4-0.3-0.6
				c0.1-0.3,0.4-0.4,0.6-0.3C83.3,42.8,83.4,43.1,83.3,43.4L83.3,43.4z M83.2,44.9c-0.1,0.3-0.4,0.5-0.7,0.4
				c-0.3-0.1-0.5-0.4-0.4-0.7c0.1-0.3,0.4-0.5,0.7-0.4C83.1,44.2,83.3,44.6,83.2,44.9L83.2,44.9z M83.4,39c-0.1,0-0.1-0.1-0.1-0.2
				c0-0.1,0.1-0.1,0.2-0.1c0.1,0,0.1,0.1,0.1,0.2C83.5,39,83.4,39,83.4,39L83.4,39z M83.3,39.6c-0.1-0.1-0.1-0.2-0.1-0.3
				c0.1-0.1,0.2-0.1,0.3-0.1c0.1,0.1,0.1,0.2,0.1,0.3C83.5,39.6,83.4,39.7,83.3,39.6L83.3,39.6z M83.6,40.2c0,0.2-0.2,0.2-0.4,0.2
				C83,40.3,83,40.1,83,40c0-0.2,0.2-0.2,0.4-0.2C83.5,39.8,83.6,40,83.6,40.2L83.6,40.2z M83.5,41c-0.1,0.2-0.3,0.3-0.5,0.2
				c-0.2-0.1-0.3-0.3-0.2-0.5c0.1-0.2,0.3-0.3,0.5-0.2C83.5,40.6,83.6,40.8,83.5,41z"/>
		</g>
		<g>
			<path class="st60" d="M58.3,69.7c-0.1,0-0.1-0.1-0.2-0.1c-0.2-0.3-0.2-0.7-0.1-1c0.1-0.3,0.4-0.7,0.7-0.8c0.2,0,0.4,0.1,0.6,0.2
				c0.2,0.2,0.4,0.5,0.4,0.8c0,0.4-0.1,0.7-0.2,1.1c-0.2,0.4-0.7,0.9-1.2,1c-0.2,0-0.4,0-0.6,0c-0.6-0.1-1.1-0.4-1.5-0.8
				c-0.5-0.4-0.9-1-1.3-1.5c-0.6-0.7-1.5-1.7-2.4-1.9c-1.1-0.3-2.2,0.6-2.9,1.3l-0.1,0.1l-0.1-0.1c-0.8-0.8-2-1.7-3.3-1.3
				c-0.8,0.3-1.4,1-1.9,1.6c-0.4,0.5-0.8,1-1.2,1.4c-0.4,0.4-0.8,0.7-1.3,0.8c-0.2,0-0.4,0-0.6,0c-0.5-0.1-0.9-0.6-1.1-1.1
				c-0.3-0.7-0.3-1.5,0.4-2c0.2-0.1,0.4-0.2,0.6-0.1c0.3,0.2,0.4,0.6,0.3,0.9c0,0.4-0.3,0.8-0.7,0.8c0.3,0.3,0.6,0.5,1,0.4
				c0.4-0.1,0.7-0.5,0.9-0.9c0.2-0.4,0.2-0.9,0-1.2c-0.3-0.5-0.9-0.6-1.5-0.5c-0.7,0.1-1.3,0.3-1.8,0.8c-0.4,0.3-0.7,0.8-0.8,1.4
				c-0.1,0.8,0.4,1.4,1,1.9c0.9,0.6,1.8,1,2.8,1.2c1,0.2,2,0.3,3,0.2c1.4-0.1,3.4-0.7,4.1-2.1l0.1-0.3l0.1,0.3c0.2,0.5,0.6,1,1,1.4
				c1.1,0.9,2.8,1.2,4.2,1.1c1.4-0.1,3.1-0.5,4.2-1.2c0.5-0.3,0.9-0.8,1.2-1.2c0.5-0.6,1-1.7,0.7-2.5c-0.3-0.6-1-0.9-1.6-0.9
				c-1-0.1-2,0.1-2.6,0.9c-0.2,0.3-0.3,0.6-0.3,0.9c0,0.3,0.1,0.6,0.3,0.7C57.4,70,57.9,69.9,58.3,69.7z"/>
			<path class="st61" d="M58.1,69.5C58,69.3,58,69.1,58,68.9c0-0.2,0-0.4,0.1-0.6c0.1-0.3,0.4-0.7,0.7-0.8c0.2,0,0.4,0.1,0.6,0.2
				c0.2,0.2,0.4,0.5,0.4,0.8c0,0.1,0,0.2,0,0.3c0,0.4-0.1,0.7-0.2,1c-0.2,0.4-0.7,0.9-1.2,1c-0.2,0-0.4,0-0.6,0
				c-0.6-0.1-1.1-0.4-1.5-0.8c-0.5-0.4-0.9-1-1.3-1.5c-0.6-0.7-1.5-1.7-2.4-1.9c-1.1-0.3-2.2,0.6-2.9,1.3l-0.1,0.1l-0.1-0.1
				c-0.8-0.8-2-1.7-3.3-1.3c-0.8,0.3-1.4,1-1.9,1.6c-0.4,0.5-0.8,1-1.2,1.4c-0.4,0.4-0.8,0.7-1.3,0.8c-0.2,0-0.4,0-0.6,0
				c-0.5-0.1-0.9-0.6-1.1-1.1c-0.2-0.3-0.2-0.7-0.2-1c-0.1-1.4,1.7-1.6,1.6-0.4c0,0.1,0,0.2,0,0.3c0,0.3-0.2,0.6-0.4,0.7
				c0.2,0.2,0.5,0.2,0.8,0.2c0.4-0.1,0.7-0.5,0.9-0.9c0.1-0.2,0.1-0.4,0.2-0.6c0-0.1,0-0.3-0.1-0.4c-0.3-0.5-0.9-0.6-1.5-0.5
				c-0.7,0.1-1.3,0.3-1.8,0.8c-0.4,0.3-0.7,0.8-0.8,1.4c0,0,0,0,0,0c0.1,0.7,0.5,1.1,1,1.5c2.7,1.9,8.4,2.3,10.1-1
				c1.3,3.3,6.8,3.4,9.5,1.6c0.5-0.3,0.9-0.8,1.2-1.2c0.3-0.5,0.7-1.2,0.8-1.8c0-0.1,0-0.3-0.1-0.4c-0.3-0.6-1-0.9-1.6-0.9
				c-1-0.1-2,0.1-2.6,0.9c-0.2,0.2-0.3,0.5-0.3,0.8c0,0.2,0.1,0.5,0.3,0.6C57.3,69.6,57.7,69.6,58.1,69.5z"/>
			<path class="st3" d="M56.7,70.8c-2.3-0.3-3.5-3.1-6.4-1.4C53.2,66.7,53.9,70,56.7,70.8z"/>
			<path class="st3" d="M47.7,69.4c-1.9,0.7-3.6,2.5-6.8,1.4C43.9,71.8,45.7,69.5,47.7,69.4z"/>
			<path class="st3" d="M49.4,68.7c-2.2-2-3.1-1.3-5.4,0.6C46.1,67,47.2,66.3,49.4,68.7z"/>
			<path class="st23" d="M59,71.2c-4.9,2.7-8.4-0.2-8.9-1.4C51.2,70.3,54.1,73.8,59,71.2z"/>
			<path class="st62" d="M49.8,68.9c1.9-1.8,2.8-1.5,5.1,0.1C53,67.1,51.2,66.3,49.8,68.9z"/>
			<path class="st23" d="M42,71.6c4.8,0.8,5.9-1.6,7.6-1.9C48.1,71.4,46.4,72.3,42,71.6z"/>
			<path class="st62" d="M49,69.1c-2.6-1.4-4.2,1.5-6.3,1.4C45.8,69.9,46.2,66.4,49,69.1z"/>
			<path class="st62" d="M51.1,69.5c1.8,0.7,2.7,2.9,6.6,1.7C54.6,71.8,52.5,69.5,51.1,69.5z"/>
		</g>
		<g>
			<path class="st52" d="M36.2,69.4c-0.3-0.3-0.7-0.5-1.1-0.3c-0.2,0.1-0.4,0.4-0.4,0.7c-0.1,0.4,0,0.7,0.2,1
				c0.2,0.3,0.5,0.6,0.9,0.6c0.6,0.1,1.1-0.2,1.5-0.7c0.4-0.6,0.5-1.2,0.2-1.9c-0.6-1.3-2.5-1.5-3.7-1.4c-0.9,0.1-1.9,0.2-2.8,0.4
				c-1.2,0.3-2.3,0.6-3.4,1c-0.6,0.2-1.2,0.5-1.7,0.8c1.5-0.4,3.1-0.6,4.6-0.5c0.9,0.1,2.2,0.3,3.1,0.8c0.2-0.8,0.6-1.7,1.5-1.8
				c0.4-0.1,0.9,0.1,1.2,0.3c0.5,0.3,1.2,0.9,0.9,1.6c-0.1,0.3-0.4,0.6-0.8,0.5C35.6,70.5,35.2,69.4,36.2,69.4z"/>
			<path class="st52" d="M63.8,69.4c0.2,0,0.5,0.1,0.6,0.3c0.1,0.2,0,0.5-0.2,0.7c-0.1,0.1-0.3,0.2-0.4,0.2
				c-0.4,0.1-0.6-0.2-0.8-0.5c-0.1-0.1-0.1-0.3-0.1-0.4c0.1-0.9,1.4-1.6,2.2-1.5c0.9,0.1,1.3,1,1.5,1.8c0.8-0.5,2.2-0.7,3.1-0.8
				c1.5-0.1,3.1,0.1,4.6,0.5c-0.6-0.3-1.1-0.6-1.7-0.8c-1.1-0.4-2.3-0.8-3.4-1c-0.9-0.2-1.9-0.4-2.8-0.4c-1.3-0.1-3.1,0.1-3.7,1.4
				c-0.3,0.6-0.2,1.3,0.2,1.9c0.3,0.4,0.9,0.7,1.5,0.7c0.4-0.1,0.7-0.3,0.9-0.6c0.2-0.3,0.3-0.7,0.2-1c0-0.3-0.2-0.5-0.4-0.7
				C64.5,68.9,64.1,69.1,63.8,69.4z"/>
			<path class="st53" d="M65.8,67.9c0.5,0.3,0.9,0.8,1.1,1.4c0.8-0.3,1.9-0.5,2.7-0.6c0.2,0,0.5,0,0.7,0c-0.4-0.1-0.9-0.2-1.3-0.3
				c-0.9-0.2-1.8-0.4-2.8-0.4C66.1,67.9,65.9,67.9,65.8,67.9z"/>
			<path class="st53" d="M34.2,67.9c-0.2,0-0.3,0-0.5,0c-0.9,0.1-1.9,0.2-2.8,0.4c-0.4,0.1-0.9,0.2-1.3,0.3c0.2,0,0.5,0,0.7,0
				c0.8,0.1,1.9,0.2,2.7,0.6C33.4,68.7,33.7,68.2,34.2,67.9z"/>
			<path class="st54" d="M36.5,67.8c-0.4,0.1-0.7,0.2-1,0.4c0.2,0.1,0.5,0.1,0.7,0.3c0.5,0.3,1.2,0.9,0.9,1.6
				c-0.1,0.3-0.4,0.6-0.8,0.5c-0.7-0.1-1-1.3,0-1.2c-0.3-0.3-0.7-0.5-1.1-0.3c-0.2,0.1-0.4,0.4-0.4,0.7c-0.1,0.4,0,0.7,0.2,1
				c0.2,0.3,0.5,0.6,0.9,0.6c0.6,0.1,1.1-0.2,1.5-0.7c0.4-0.6,0.5-1.2,0.2-1.9C37.3,68.4,36.9,68,36.5,67.8z"/>
			<path class="st62" d="M21.9,69.2c0.3,0,0.5-0.3,0.4-0.6c0-0.3-0.3-0.5-0.6-0.4c-0.3,0-0.5,0.3-0.4,0.6
				C21.4,69.1,21.6,69.3,21.9,69.2L21.9,69.2z M23.4,69.2c0.3,0,0.5-0.3,0.5-0.7c0-0.3-0.3-0.5-0.7-0.5c-0.3,0-0.5,0.3-0.5,0.7
				C22.8,69,23.1,69.2,23.4,69.2L23.4,69.2z M17.6,69.1c0-0.1-0.1-0.1-0.2-0.1c-0.1,0-0.1,0.1-0.1,0.2c0,0.1,0.1,0.1,0.2,0.1
				C17.5,69.3,17.6,69.2,17.6,69.1L17.6,69.1z M18.2,69c0-0.1-0.2-0.2-0.3-0.1c-0.1,0-0.2,0.2-0.1,0.3c0,0.1,0.2,0.2,0.3,0.1
				C18.2,69.2,18.2,69.1,18.2,69L18.2,69z M25.1,69.2c0.4-0.1,0.6-0.4,0.6-0.8c-0.1-0.4-0.4-0.6-0.8-0.6c-0.4,0.1-0.6,0.4-0.6,0.8
				C24.4,69,24.7,69.3,25.1,69.2L25.1,69.2z M18.7,69.3c0.2,0,0.3-0.2,0.2-0.3c0-0.2-0.2-0.3-0.3-0.2c-0.2,0-0.3,0.2-0.2,0.3
				C18.4,69.2,18.5,69.3,18.7,69.3L18.7,69.3z M19.5,69.3c0.2,0,0.3-0.2,0.3-0.4c0-0.2-0.2-0.3-0.4-0.3c-0.2,0-0.3,0.2-0.3,0.4
				C19.2,69.2,19.4,69.3,19.5,69.3L19.5,69.3z M20.6,69.3c0.2,0,0.4-0.3,0.4-0.5c0-0.2-0.3-0.4-0.5-0.4c-0.2,0-0.4,0.3-0.4,0.5
				C20.2,69.1,20.4,69.3,20.6,69.3z"/>
			<path class="st63" d="M26.5,68.6c0.2,0,0.4-0.2,0.3-0.5c0-0.2-0.2-0.4-0.5-0.3c-0.2,0-0.4,0.2-0.3,0.5
				C26,68.5,26.2,68.7,26.5,68.6L26.5,68.6z M28.4,67.7c0-0.1-0.1-0.1-0.2-0.1c-0.1,0-0.1,0.1-0.1,0.2c0,0.1,0.1,0.1,0.2,0.1
				C28.3,67.9,28.4,67.8,28.4,67.7L28.4,67.7z M27.6,67.9c-0.1-0.1-0.2-0.2-0.3-0.1c-0.1,0.1-0.2,0.2-0.1,0.3
				c0.1,0.1,0.2,0.2,0.3,0.1C27.6,68.2,27.7,68,27.6,67.9z"/>
			<path class="st54" d="M63.5,67.8c0.4,0.1,0.7,0.2,1,0.4c-0.7,0.2-1.6,0.8-1.6,1.4c0,0.1,0,0.3,0.1,0.4c0.1,0.3,0.4,0.6,0.8,0.5
				c0.2,0,0.3-0.1,0.4-0.2c0.2-0.2,0.3-0.5,0.2-0.7c-0.1-0.2-0.3-0.3-0.6-0.3c0.3-0.3,0.7-0.5,1.1-0.3c0.2,0.1,0.4,0.4,0.4,0.7
				c0.1,0.4,0,0.7-0.2,1c-0.2,0.3-0.5,0.6-0.9,0.6c-0.6,0.1-1.1-0.2-1.5-0.7c-0.4-0.6-0.5-1.2-0.2-1.9C62.7,68.4,63.1,68,63.5,67.8z
				"/>
			<path class="st62" d="M78.1,69.2c-0.3,0-0.5-0.3-0.4-0.6s0.3-0.5,0.6-0.4s0.5,0.3,0.4,0.6C78.6,69.1,78.4,69.3,78.1,69.2
				L78.1,69.2z M76.6,69.2c-0.3,0-0.5-0.3-0.5-0.7c0-0.3,0.3-0.5,0.7-0.5c0.3,0,0.5,0.3,0.5,0.7C77.2,69,76.9,69.2,76.6,69.2
				L76.6,69.2z M82.4,69.1c0-0.1,0.1-0.1,0.2-0.1c0.1,0,0.1,0.1,0.1,0.2c0,0.1-0.1,0.1-0.2,0.1C82.5,69.3,82.4,69.2,82.4,69.1
				L82.4,69.1z M81.8,69c0-0.1,0.2-0.2,0.3-0.1c0.1,0,0.2,0.2,0.1,0.3c0,0.1-0.2,0.2-0.3,0.1C81.8,69.2,81.8,69.1,81.8,69L81.8,69z
				 M74.9,69.2c-0.4-0.1-0.6-0.4-0.6-0.8c0.1-0.4,0.4-0.6,0.8-0.6c0.4,0.1,0.6,0.4,0.6,0.8C75.6,69,75.3,69.3,74.9,69.2L74.9,69.2z
				 M81.3,69.3c-0.2,0-0.3-0.2-0.2-0.3c0-0.2,0.2-0.3,0.3-0.2c0.2,0,0.3,0.2,0.2,0.3C81.6,69.2,81.5,69.3,81.3,69.3L81.3,69.3z
				 M80.5,69.3c-0.2,0-0.3-0.2-0.3-0.4c0-0.2,0.2-0.3,0.4-0.3c0.2,0,0.3,0.2,0.3,0.4C80.8,69.2,80.6,69.3,80.5,69.3L80.5,69.3z
				 M79.4,69.3c-0.2,0-0.4-0.3-0.4-0.5c0-0.2,0.3-0.4,0.5-0.4c0.2,0,0.4,0.3,0.4,0.5C79.8,69.1,79.6,69.3,79.4,69.3z"/>
			<path class="st63" d="M73.5,68.6c-0.2,0-0.4-0.2-0.3-0.5c0-0.2,0.2-0.4,0.5-0.3c0.2,0,0.4,0.2,0.3,0.5
				C74,68.5,73.8,68.7,73.5,68.6L73.5,68.6z M71.6,67.7c0-0.1,0.1-0.1,0.2-0.1c0.1,0,0.1,0.1,0.1,0.2c0,0.1-0.1,0.1-0.2,0.1
				C71.7,67.9,71.6,67.8,71.6,67.7L71.6,67.7z M72.4,67.9c0.1-0.1,0.2-0.2,0.3-0.1c0.1,0.1,0.2,0.2,0.1,0.3
				c-0.1,0.1-0.2,0.2-0.3,0.1C72.4,68.2,72.3,68,72.4,67.9z"/>
		</g>
		<g>
			<path class="st54" d="M51.4,73.6l-1.7,1.2l-1.8-1.4c0.7-0.3,1.3-0.6,1.8-1.1C50.2,72.9,50.7,73.3,51.4,73.6z"/>
			<path class="st55" d="M49.7,73.1c-0.2,0.2-0.4,0.3-0.7,0.4l0.7,0.5l0.6-0.4C50.1,73.5,49.9,73.3,49.7,73.1z"/>
		</g>
		<path class="st52" d="M88.4,64c0.5,0.6,0.7,1.5,0.6,2.2c0,0.4-0.1,0.9-0.3,1.3c0.6-0.4,1.2-0.9,1.6-1.5c0.3-0.3,0.6-0.9,0.4-1.4
			C90.4,64,89.2,64,88.4,64z"/>
		<path class="st64" d="M53.3,55.3c0.4-0.2,0.7-0.6,0.8-1.2c0-0.6-0.4-1.1-0.9-1.3c0,0.4,0,0.7,0,1.1c0.2,0.2,0.3,0.5,0.3,0.9
			C53.4,54.9,53.4,55.1,53.3,55.3L53.3,55.3z M83.5,53.5c0.2,0.2,0.4,0.4,0.5,0.7l0,0l0,0.1c0.2,0.3,0.3,0.6,0.5,1
			c0.1-0.5,0.1-1,0.2-1.4l0,0C84.3,53.6,83.9,53.5,83.5,53.5L83.5,53.5z M88.5,60.2c0.4-0.2,0.7-0.6,0.8-1.1
			c0.2-0.8-0.1-1.5-0.7-1.9c-0.1,0.4-0.2,0.7-0.3,1.1c0.3,0.4,0.4,0.9,0.3,1.5C88.7,59.9,88.6,60.1,88.5,60.2L88.5,60.2z M79.2,63.2
			c0.2-0.3,0.5-0.9,0.6-1.1c0.3-0.9,0.5-1.8,0.7-2.7c0.1-1,0.2-2,0.2-2.9c0-0.2-0.1-1-0.2-1.3c-0.2,0.2-0.4,0.7-0.5,1
			c0.1,0.4,0.1,0.8,0.1,1c0.1,1,0,2-0.2,2.9c-0.1,0.9-0.3,1.9-0.7,2.7c0,0,0,0.1,0,0.1C79.1,63,79.1,63.1,79.2,63.2L79.2,63.2z
			 M66.2,52.9c-0.3,0.3-0.6,0.5-1.1,0.7c-0.8,0.3-1.7,0.1-2.5-0.3c0,0-0.1-0.1-0.1,0c-0.2,0.1-0.3,0.5-0.4,0.8
			c0.7,0.4,1.6,0.5,2.4,0.3c0.4-0.1,0.8-0.4,1.1-0.7c0,0.8,0,1.5,0,2.3c0.2,0.2,0.4,0.3,0.6,0.6C66.2,55.2,66.2,54,66.2,52.9
			L66.2,52.9z M70.4,64L70.4,64c0.2-0.9,0.4-1.9,0.6-2.8c0.1-0.6,0.2-1.3,0.3-1.9c-0.4,0-0.8-0.1-1.2-0.1c0,0.3,0,0.5-0.1,0.8
			c0.2,0,0.4,0,0.6,0c-0.1,0.6-0.2,1.3-0.3,1.9c-0.1,0.7-0.3,1.4-0.4,2.1C70.1,64,70.3,64,70.4,64L70.4,64z M75.9,64.8
			c-0.3-0.3-0.5-0.7-0.7-1.2c0,0.3,0,0.6,0,0.9l0,0l0,0l0,0l0,0C75.4,64.7,75.7,64.7,75.9,64.8L75.9,64.8z M82.6,66.1
			c0.1-0.4,0.2-0.8,0.3-1.2c-0.4,0.4-0.8,0.7-1.2,1C81.9,65.9,82.2,66,82.6,66.1L82.6,66.1z M61.4,60.6c0-0.2,0-0.4,0.1-0.5
			c0-0.2,0.1-1-0.1-1.2c-0.1-0.1-1.3-0.2-1.5-0.2c-0.8-0.1-2.3-0.7-2.6-1.8c0.3-0.3,0.5-0.5,0.7-0.9c0,0.1,0,0.1,0.1,0.3
			c0.4,1,1.3,1.6,2.5,1.7c0.2,0,1.4,0.1,1.5,0.2c0.1,0.1,0.1,1,0.1,1.2c0,0.3-0.1,1.1-0.3,1.4C61.7,60.7,61.5,60.6,61.4,60.6
			L61.4,60.6z M71.3,51.4l-0.1,0.4c-0.1,0.2-0.1,0.3-0.1,0.5l0,0.2c0,0.8,0.1,1.6,0,2.5c0,0.4,0,0.7,0,1.1c0.2,0,0.4,0,0.6,0.1
			c0-0.6,0.1-1.2,0.1-1.9c0-0.8,0-1.6,0-2.5l0-0.3C71.5,51.4,71.4,51.4,71.3,51.4L71.3,51.4z M76.9,52.2c-0.2,0.5-0.5,1.1-0.6,1.6
			c0.5-0.6,1.1-1.1,1.8-1.4c-0.2,0-0.3-0.1-0.5-0.1l0,0L76.9,52.2L76.9,52.2z M37,58.4c0,0.3,0.1,0.6,0.1,0.9
			c0.3,0.2,0.5,0.5,0.5,0.9c0,0.2,0,0.4-0.1,0.6c0.5-0.3,0.8-0.7,0.7-1.2C38.3,58.8,37.7,58.5,37,58.4L37,58.4z M37.1,55.2
			c0.1-0.1,0.2-0.1,0.4-0.2c0.2-0.2,0.3-0.4,0.3-0.6c0-0.2-0.2-0.4-0.4-0.6c-0.2-0.1-0.4-0.2-0.7-0.2c0,0.3,0,0.6,0,0.9c0,0,0,0,0,0
			c0.2,0.1,0.4,0.3,0.4,0.6C37.2,55.1,37.1,55.1,37.1,55.2L37.1,55.2z M28.2,56.8c0.5-0.3,0.8-0.7,0.8-1.4c-0.1-0.6-0.5-1-1-1.2
			c0,0.4,0,0.8,0.1,1.1c0.2,0.2,0.3,0.4,0.3,0.7C28.3,56.4,28.3,56.6,28.2,56.8L28.2,56.8z M11.5,62.3c0.1,0.3,0.1,0.6,0.2,0.9
			c0.2,0.2,0.4,0.4,0.5,0.7c0.1,0.3,0,0.6-0.1,0.8l0,0.1c0.5-0.4,0.8-0.9,0.7-1.6C12.7,62.5,12.1,62.3,11.5,62.3L11.5,62.3z
			 M10.9,59.2c0.2-0.1,0.4-0.2,0.5-0.4c0.2-0.2,0.3-0.5,0.2-0.8c-0.1-0.5-0.6-0.7-1-0.7c0,0.3,0,0.6,0.1,0.9
			c0.1,0.1,0.3,0.3,0.3,0.5C11,58.8,11,59,10.9,59.2L10.9,59.2z M32.9,57.2c-0.1,0.3-0.3,0.5-0.5,0.7c0.2,0.2,0.4,0.4,0.6,0.6
			c0-0.3-0.1-0.7-0.1-1C33,57.4,32.9,57.3,32.9,57.2L32.9,57.2z M48.9,56.4c-0.1,0.3-0.4,0.6-0.6,0.8l0,0.2c0,1,0,2.1,0,3.1
			c0.2,0.1,0.4,0.2,0.6,0.3c0-1.4,0.1-2.7,0-4.1C48.9,56.6,48.9,56.5,48.9,56.4L48.9,56.4z M48.1,57.3c-0.7,0.4-1.5,0.4-2.3,0.4
			c0,0.2,0,0.5,0,0.7C46.7,58.3,47.5,58.1,48.1,57.3L48.1,57.3z M48.8,52.5C48.7,52.5,48.7,52.6,48.8,52.5c-0.9,0.6-2,0.6-3.1,0.5
			c0,0.2,0,0.5,0,0.7c0.9,0,1.7-0.1,2.4-0.5c0,0,0,0,0.1,0c0,0.4,0,0.8,0.1,1.2l0.2,0l0.5,0C48.8,53.8,48.8,53.1,48.8,52.5
			L48.8,52.5z M20.8,65.5c-0.1-0.6-0.2-1.1-0.3-1.7c-0.3,0.1-0.7,0.1-1,0.2c0,0.2,0,0.4,0,0.5l0.3-0.1c0.1,0.4,0.2,0.8,0.3,1.2
			l0.2,0L20.8,65.5L20.8,65.5z M30,64.1c-0.2-0.2-0.3-0.5-0.4-0.8c-0.2-0.6-0.2-1.3-0.3-1.9c0-0.4-0.1-0.8-0.2-1.2
			c0-0.1-0.1-0.1-0.1-0.2c-0.1-0.1-0.2-0.1-0.4-0.1c0.1,0.6,0.2,1.2,0.3,1.8c0.2,0.8,0.4,1.6,0.6,2.4l0,0.1
			C29.6,64.2,29.8,64.1,30,64.1L30,64.1z M54.3,62.9c-0.3-0.3-0.5-0.5-0.5-1c-0.1-0.6-0.1-1.3-0.1-1.9c0-0.4,0-0.8,0-1.2
			c0-0.1,0-0.1-0.1-0.2c-0.1-0.1-0.2-0.1-0.4-0.2c0,0.6,0,1.2,0.1,1.8c0.1,0.9,0.2,1.8,0.4,2.7C53.8,62.9,54,62.9,54.3,62.9
			L54.3,62.9z M13.8,54.2c0.1,0.1,0.2,0.1,0.3,0.2c0.5-0.1,1-0.2,1.6-0.4l0,0.1c0.3,1.9,0.2,3.8,0.1,5.7c0.2,0.2,0.4,0.4,0.6,0.6
			c0-0.2,0-0.4,0-0.7c0.1-1.2,0.1-2.4,0.1-3.6c0-0.8,0-1.7-0.1-2.6C15.5,53.8,14.6,54,13.8,54.2L13.8,54.2z M21.2,52.7
			c0.1,0.1,0.2,0.2,0.2,0.3c0.3-0.1,0.7-0.1,1-0.2l0.1,0.4c0.4,1.9,0.7,3.8,0.9,5.7c0.1,0.2,0.1,0.3,0.2,0.5
			c0.3,0.7,0.5,1.4,0.8,2.1c-0.1-0.9-0.2-1.9-0.3-2.8c-0.3-2.1-0.6-4.1-1-6.1l0-0.1C22.5,52.4,21.8,52.6,21.2,52.7L21.2,52.7z
			 M30.8,51.3c0.2,0.1,0.4,0.2,0.6,0.3l0,0l0,0c0.3,0.2,0.6,0.5,0.9,0.8c-0.1-0.3-0.1-0.6-0.2-0.9l-0.1-0.3
			C31.7,51.2,31.2,51.3,30.8,51.3L30.8,51.3z M39.6,50.6c0.6,0.2,1.1,0.6,1.5,1c0-0.4-0.1-0.7-0.1-1.1
			C40.6,50.5,40.1,50.5,39.6,50.6L39.6,50.6z M56.8,50.3c0.5,0.2,0.9,0.6,1.2,1.2c0.2-0.4,0.6-0.8,1.1-1.1
			C58.5,50.3,57.4,50.3,56.8,50.3z"/>
		<g>
			<g>
				<path class="st62" d="M6.9,55.9c0.6,2,1.1,4,1.5,6c0.4,2,0.8,4.1,1,6.1c0.4-0.1,0.7-0.2,1.1-0.3c0.9-0.2,1.8-0.5,2.7-0.7
					c1.8-0.4,3-1.7,3-3.7c0-0.7-0.2-1.5-0.6-2.1c-0.5-0.7-0.9-1-1.8-1.1l-0.1,0l0.1-0.1c1.1-0.9,1.3-2.2,0.7-3.5
					c-0.7-1.5-2.2-2-3.7-1.6C9.5,55.2,8.2,55.5,6.9,55.9L6.9,55.9z M10.1,60.3c-0.1-0.6-0.3-1.2-0.4-1.8c-0.1-0.6-0.1-1.3-0.1-1.9
					l0,0l0,0c0.7-0.2,1.3-0.2,2,0.1c0.4,0.2,0.8,0.6,0.9,1c0.2,0.6,0.1,1.1-0.3,1.6c-0.4,0.7-1.2,1-2,1.2l-0.2,0.1L10.1,60.3
					L10.1,60.3z M10.5,61.4c0.6-0.2,1.3-0.2,2,0c0.5,0.2,0.9,0.5,1.1,1c0.3,0.6,0.3,1.4,0,2.1c-0.4,0.8-1.1,1.3-1.9,1.5l-0.2,0l0,0
					c-0.5-1.5-0.8-3-1.1-4.5l0,0L10.5,61.4z"/>
				<path class="st62" d="M18.6,65.7c-0.1-0.8-0.1-1.7-0.1-2.5v0l2.7-0.5l0,0c0.2,0.8,0.4,1.6,0.5,2.4c1-0.2,2.1-0.4,3.1-0.5
					c-0.9-1.6-1.6-3.3-2.3-5.1c-0.6-1.7-1.2-3.4-1.7-5.2c-0.1-0.4-0.3-1-0.7-1.2c-0.2-0.1-0.5-0.1-0.7-0.1c-0.3,0-0.7,0.1-1,0.2
					c-0.4,0.1-0.8,0.1-1.2,0.2c0.1,0.9,0.1,1.8,0.1,2.7c0,1.2,0,2.4-0.1,3.6c-0.1,1.2-0.1,2.4-0.3,3.6c-0.1,0.5-0.1,1-0.2,1.5
					c-0.1,0.4-0.1,0.8-0.2,1.1C17.4,66,18,65.9,18.6,65.7L18.6,65.7z M18.9,56.2c0.4,0.9,0.8,1.8,1.1,2.7c0.4,0.9,0.7,1.9,1,2.9
					l0,0.1l-0.2,0l-2.2,0.4l0-0.1c0.1-2,0.2-4,0.3-5.9l0-0.2L18.9,56.2z"/>
				<path class="st62" d="M24.1,52.5c0.4,2,0.7,4,1,6c0.3,2,0.5,4,0.6,6.1c0.9-0.1,1.8-0.3,2.7-0.4c-0.2-0.8-0.4-1.7-0.6-2.5
					c-0.2-0.9-0.3-1.7-0.4-2.6l0-0.1l0.1,0c1-0.1,2.2-0.2,2.6,0.9c0.1,0.4,0.2,0.9,0.2,1.4c0.1,0.6,0.1,1.2,0.3,1.8
					c0.1,0.6,0.9,0.7,1.4,0.6c0.5,0,0.9-0.1,1.4-0.2c-0.7-1.2-0.6-2.6-0.9-4c-0.1-0.5-0.3-0.9-0.8-1.2c-0.4-0.2-1-0.2-1.4-0.2
					c1.8-0.7,2.5-1.7,2.1-3.7c-0.4-1.8-1.9-2.8-3.7-2.6C27.1,52.1,25.6,52.3,24.1,52.5L24.1,52.5z M27,53.2c0.7-0.1,1.4,0,2,0.4
					c0.4,0.3,0.7,0.8,0.9,1.3c0.2,0.7,0,1.3-0.3,1.9c-0.5,0.7-1.2,1-2,1.1l-0.2,0l0-0.2C27.1,56.3,26.9,54.8,27,53.2L27,53.2
					L27,53.2z"/>
				<path class="st62" d="M34.2,63.5c1.4-0.1,2.7-0.2,4.1-0.3c1.8-0.1,3.3-1.1,3.5-3c0.1-0.7,0-1.4-0.3-2c-0.4-0.9-0.9-1.2-1.8-1.5
					c1.3-0.7,1.8-1.8,1.3-3.3c-0.5-1.6-2-2.2-3.6-2.1c-1.4,0.1-2.8,0.2-4.2,0.3C33.9,55.5,34.3,59.5,34.2,63.5L34.2,63.5z
					 M35.9,56.2c0-0.6-0.1-1.2-0.1-1.8c0-0.6,0-1.2,0.1-1.9l0,0l0,0c0.7-0.1,1.5,0,2.1,0.4c0.4,0.3,0.7,0.7,0.8,1.3
					c0,0.6-0.2,1.1-0.6,1.4c-0.6,0.5-1.4,0.7-2.1,0.8l-0.2,0L35.9,56.2L35.9,56.2z M36.2,57.4c0.8-0.1,1.6,0.1,2.3,0.5
					c0.5,0.4,0.8,0.9,0.9,1.5c0.1,0.6-0.1,1.2-0.6,1.7c-0.5,0.6-1.3,0.9-2,0.9l-0.2,0l0,0c-0.2-0.8-0.3-1.6-0.4-2.3
					c-0.1-0.7-0.1-1.5-0.2-2.2l0-0.1L36.2,57.4z"/>
				<path class="st62" d="M42.6,62.9c2.1-0.1,4.2-0.2,6.3-0.2c-0.2-1.9-2.4-1.4-3.6-1.1l-0.2,0l0-0.1c-0.1-0.8-0.2-1.5-0.2-2.3
					c-0.1-0.8-0.1-1.7-0.1-2.5l0-0.1l0.1,0c0.3,0,0.7,0.1,1,0.1c1.1,0.1,2.2,0,2.4-1.4l-3.5,0.1l0,0c-0.1-0.6-0.1-1.1-0.1-1.7
					c0-0.6,0.1-1.1,0.1-1.7l0-0.1l1.5,0.1c1.1,0,2.2-0.1,2.3-1.5c-2.2,0.1-4.4,0.1-6.6,0.2C42.6,54.9,42.7,58.9,42.6,62.9z"/>
				<path class="st62" d="M52.5,62.6c-0.3-1.7-0.4-3.4-0.4-5.1l0-0.1l0.1,0c1,0,2.2,0,2.4,1.2c0.1,0.4,0.1,0.9,0.1,1.4
					c0,0.6,0,1.2,0.1,1.8c0.1,0.6,0.8,0.8,1.3,0.8c0.5,0,1,0,1.4,0c-0.6-1.4-0.3-2.6-0.4-4c-0.1-1.3-1-1.5-2.1-1.6
					c1.8-0.4,2.7-1.5,2.5-3.4c-0.2-1.9-1.6-2.9-3.4-2.9c-1.5,0-3,0-4.5,0c0.3,4,0.4,8,0.1,12C50.7,62.6,51.6,62.6,52.5,62.6
					L52.5,62.6z M52.1,56.3c0-1.5,0-3,0.2-4.5l0,0l0,0c0.7,0,1.4,0.1,2,0.6c0.4,0.4,0.7,0.9,0.8,1.5c0.1,0.7-0.2,1.3-0.6,1.8
					c-0.6,0.6-1.3,0.8-2.1,0.8l-0.2,0V56.3z"/>
				<path class="st62" d="M65.9,51.3c-1.2,0-2.4-0.2-3.5-0.3c-0.9-0.1-2-0.1-2.7,0.5c-0.7,0.5-0.9,1.4-1,2.3
					c-0.1,1.5,0.1,3.2,1.9,3.3c2,0.2,2.7,0.1,2.5,2.4c0,0.7-0.2,1.7-0.8,2.1c-0.5,0.3-1,0.1-1.5-0.2c-0.4-0.2-0.9-0.4-1.3-0.2
					c-0.7,0.2-1.1,0.8-1.2,1.5c0.7-0.1,1.5,0,2.2,0c0.7,0.1,1.4,0.2,2.1,0.3c0.7,0.1,1.5,0.2,2-0.3c0.6-0.5,0.7-1.5,0.8-2.2
					c0.2-2,0.6-4.2-2.1-4.2c-0.6,0-1.4-0.1-1.9-0.5c-0.4-0.4-0.5-1-0.5-1.5c0-0.1,0-0.2,0-0.3c0.2-1,0.9-2,2-1.4
					c0.5,0.3,1.2,0.4,1.8,0.2C65.5,52.4,65.8,51.8,65.9,51.3z"/>
				<path class="st62" d="M71.5,64l2.7,0.4c0-0.9,0-1.8,0.1-2.6c0.1-1.1,0.2-2.3,0.3-3.4c0.1-1.1,0.3-2.3,0.5-3.4
					c0.2-0.8,0.4-1.7,0.6-2.6c-1-0.1-2-0.3-3-0.4c0.1,1.7,0,3.4-0.2,5.1l0,0.1l-3.3-0.4l0-0.1c0.1-0.9,0.2-1.7,0.3-2.6
					c0.1-0.8,0.3-1.7,0.6-2.5c-1-0.1-2-0.2-3.1-0.3c0.2,2.1,0.1,4.2-0.1,6.2c-0.2,1.9-0.5,3.8-0.8,5.7l2.7,0.3c0-0.9,0-1.9,0-2.8
					c0-0.9,0.1-1.9,0.2-2.8l0-0.1l0.1,0c1.1,0.4,2,0.4,3.2,0.4l0.1,0l0,0.1c-0.1,0.9-0.3,1.9-0.4,2.8C71.8,62.1,71.7,63,71.5,64z"/>
				<path class="st62" d="M80.7,52.9c-0.6-0.1-1.3-0.1-1.9,0.2c-1,0.4-1.7,1.2-2.2,2.1c-0.6,1-0.9,2.2-1.1,3.4c-0.3,2,0,4.6,1.7,6
					c0.1,0.1,0.3,0.2,0.4,0.3c0.9,0.6,2.2,0.7,3.2,0.3c1-0.4,1.7-1.2,2.2-2.1c0.6-1,0.9-2.2,1.1-3.4c0.2-2,0-4.7-1.7-6.1
					C81.8,53.2,81.2,53,80.7,52.9L80.7,52.9z M79,64.3c-0.8-0.1-1-1.3-1-1.9c-0.2-2,0.2-4.9,1-6.7c0.3-0.6,0.8-1.8,1.7-1.5
					c0.7,0.2,0.9,1.3,0.9,1.9c0.1,1.1,0,2.4-0.2,3.5c-0.1,0.8-0.3,1.7-0.6,2.5c-0.2,0.7-0.7,2.1-1.5,2.3
					C79.2,64.3,79.1,64.3,79,64.3z"/>
				<path class="st62" d="M86.2,66.7c0-0.7,0-1.4,0.1-2.1c0.1-0.7,0.2-1.5,0.3-2.2l0-0.1l0.1,0c1.2,0.3,2.6,0.6,3.8,0.2
					c1.4-0.4,2-1.5,2.3-2.8c0.2-0.9,0.1-1.9-0.3-2.7c-0.5-1.1-1.4-1.7-2.5-2c-1.4-0.4-2.8-0.6-4.2-0.9c-0.2,2-0.5,4-0.8,6
					c-0.3,2-0.8,4.1-1.2,6.1C84.4,66.3,85.3,66.5,86.2,66.7L86.2,66.7z M86.9,61c0.3-1.7,0.6-3.4,1.2-5l0,0l0,0
					c0.8,0.2,1.5,0.6,1.9,1.4c0.5,1,0.4,2.3-0.3,3.2c-0.7,0.8-1.7,1-2.7,0.7l-0.2,0L86.9,61z"/>
			</g>
			<g>
				<path class="st63" d="M8.3,61.4c0,0.2,0.1,0.3,0.1,0.5c0,0.1,0,0.2,0.1,0.3c0.6-0.1,1.2-0.3,1.8-0.4l0,0l-0.1-0.3l0,0l0.2,0
					c0.6-0.2,1.2-0.2,1.8,0c1-0.2,2.1-0.4,3.1-0.6c-0.4-0.5-0.8-0.6-1.5-0.8l-0.1,0l0.1-0.1c0.2-0.2,0.4-0.3,0.5-0.5
					c-1.5,0.4-2.9,0.8-4.4,1.3C9.4,61,8.9,61.2,8.3,61.4z"/>
				<path class="st63" d="M22.7,59.7l-0.1-0.2c-0.2-0.6-0.5-1.2-0.7-1.9c-0.7,0.1-1.5,0.3-2.2,0.5c0.1,0.2,0.2,0.4,0.3,0.7
					c0.2,0.4,0.3,0.8,0.4,1.2C21.2,59.9,21.9,59.8,22.7,59.7L22.7,59.7z M17.4,58.7c0,0.4,0,0.8,0,1.1c0,0.2,0,0.4,0,0.7
					c0.4-0.1,0.8-0.1,1.2-0.2c0-0.6,0.1-1.3,0.1-1.9C18.3,58.5,17.9,58.6,17.4,58.7z"/>
				<path class="st63" d="M24.9,57.2c0.1,0.4,0.1,0.9,0.2,1.3c0,0.3,0.1,0.6,0.1,1c0.7-0.1,1.5-0.2,2.2-0.2l0-0.1l0-0.1l0.1,0
					c0.5-0.1,1.1-0.1,1.6,0c1-0.1,2-0.2,3-0.3c-0.1-0.1-0.3-0.3-0.4-0.3c-0.4-0.2-1-0.2-1.4-0.2c1.2-0.5,1.9-1.1,2.1-2.1
					c-0.9,0.1-1.7,0.2-2.6,0.3c-0.1,0.2-0.1,0.3-0.2,0.5c-0.5,0.7-1.2,1-2,1.1l-0.2,0l0-0.2c0-0.3-0.1-0.7-0.1-1
					C26.4,56.9,25.7,57,24.9,57.2z"/>
				<path class="st63" d="M41.6,58.2C41.6,58.2,41.6,58.2,41.6,58.2c-0.5-1-0.9-1.3-1.9-1.6c0.6-0.3,1-0.7,1.2-1.2
					c-0.9,0.1-1.8,0.1-2.7,0.2c0,0-0.1,0.1-0.1,0.1c-0.6,0.5-1.4,0.7-2.1,0.8l-0.2,0l0-0.2c0-0.2,0-0.3,0-0.5
					c-0.7,0.1-1.3,0.1-2,0.2c0.1,0.9,0.2,1.8,0.2,2.6c0.7,0,1.3-0.1,2-0.1c0-0.3-0.1-0.7-0.1-1l0-0.1l0.2,0c0.8-0.1,1.6,0.1,2.3,0.5
					c0.2,0.1,0.3,0.3,0.4,0.4C39.8,58.3,40.7,58.3,41.6,58.2z"/>
				<path class="st63" d="M44.7,58.1c0-0.5,0-1,0-1.5l0-0.1l0.1,0c0.3,0,0.7,0.1,1,0.1c1.1,0.1,2.2,0,2.4-1.4l-3.5,0.1l0,0
					c0-0.1,0-0.1,0-0.2c-0.7,0-1.5,0.1-2.2,0.1c0.1,1,0.1,1.9,0.1,2.9C43.3,58.2,44,58.1,44.7,58.1z"/>
				<path class="st63" d="M52.1,58.1c0-0.2,0-0.4,0-0.6l0-0.1l0.1,0c0.8,0,1.8,0,2.2,0.7c0.9,0,1.7,0,2.6,0.1
					c-0.2-0.9-1.1-1.1-2-1.3c1.1-0.2,1.9-0.8,2.3-1.6c-0.8,0-1.7-0.1-2.5-0.1c-0.1,0.1-0.2,0.3-0.3,0.4c-0.6,0.6-1.3,0.8-2.1,0.8
					l-0.2,0v-0.2c0-0.4,0-0.7,0-1.1c-0.7,0-1.4,0-2,0l-0.2,0c0,1,0,2,0,2.9l0.2,0C50.8,58.1,51.5,58.1,52.1,58.1z"/>
				<path class="st63" d="M58.7,55.4c0.2,0.9,0.7,1.6,1.8,1.7c1.6,0.2,2.4,0.1,2.5,1.4c0.9,0,1.7,0.1,2.6,0.2c0-1.3-0.4-2.3-2.3-2.4
					c-0.6,0-1.4-0.1-1.9-0.5c0,0-0.1-0.1-0.1-0.1C60.5,55.5,59.6,55.4,58.7,55.4z"/>
				<path class="st63" d="M74.5,59.4c0-0.3,0.1-0.7,0.1-1c0.1-0.4,0.1-0.8,0.2-1.2c-0.7-0.1-1.4-0.2-2.2-0.3c0,0.1,0,0.2,0,0.4
					l0,0.1l-3.3-0.4l0-0.1c0-0.1,0-0.3,0-0.4c-0.7-0.1-1.5-0.2-2.2-0.3c0,0.5-0.1,1-0.1,1.5c0,0.4-0.1,0.7-0.1,1.1
					c0.7,0.1,1.5,0.1,2.2,0.2c0-0.3,0-0.5,0.1-0.8l0-0.1l0.1,0c1.1,0.4,2,0.4,3.2,0.4l0.1,0l0,0.1c0,0.3-0.1,0.5-0.1,0.8
					C73,59.2,73.7,59.3,74.5,59.4z"/>
				<path class="st63" d="M75.7,57.2c-0.1,0.4-0.2,0.9-0.3,1.3c0,0.3-0.1,0.6-0.1,0.9c0.7,0.1,1.4,0.2,2.1,0.3c0.2,0,0.3,0,0.5,0.1
					c0.1-0.7,0.2-1.4,0.3-2.1c-0.1,0-0.2,0-0.3-0.1C77.2,57.5,76.5,57.4,75.7,57.2L75.7,57.2z M83.8,60.7c0.1-0.3,0.1-0.7,0.2-1
					c0-0.2,0-0.4,0.1-0.7c-0.8-0.2-1.7-0.4-2.5-0.6c0,0.4-0.1,0.7-0.1,1.1c0,0.2-0.1,0.5-0.1,0.7C82.1,60.4,83,60.5,83.8,60.7z"/>
				<path class="st63" d="M91.3,62.1c0.3-0.2,0.5-0.4,0.7-0.7c-0.6-0.2-1.2-0.4-1.8-0.6c-0.2-0.1-0.4-0.1-0.6-0.2
					c-0.7,0.7-1.7,0.9-2.6,0.6l-0.2,0l0-0.2c0.1-0.4,0.1-0.8,0.2-1.1c-0.7-0.2-1.4-0.4-2.1-0.6c0,0.3-0.1,0.6-0.1,0.9
					c0,0.2-0.1,0.5-0.1,0.7c1.7,0.3,3.5,0.6,5.2,1C90.4,61.9,90.8,62,91.3,62.1z"/>
			</g>
		</g>
	</g>
</g>
</svg>
